%TF.GenerationSoftware,KiCad,Pcbnew,9.0.6*%
%TF.CreationDate,2025-12-27T14:43:41+05:30*%
%TF.ProjectId,PCB NEW FOR breD BOARD SUPPLY,50434220-4e45-4572-9046-4f5220627265,rev?*%
%TF.SameCoordinates,Original*%
%TF.FileFunction,Drillmap*%
%TF.FilePolarity,Positive*%
%FSLAX45Y45*%
G04 Gerber Fmt 4.5, Leading zero omitted, Abs format (unit mm)*
G04 Created by KiCad (PCBNEW 9.0.6) date 2025-12-27 14:43:41*
%MOMM*%
%LPD*%
G01*
G04 APERTURE LIST*
%ADD10C,0.050000*%
%ADD11C,0.200000*%
%ADD12C,0.100000*%
%ADD13C,0.110000*%
%ADD14C,0.152000*%
G04 APERTURE END LIST*
D10*
X15870000Y-9802500D02*
G75*
G02*
X15802500Y-9735000I0J67500D01*
G01*
X16230000Y-5895000D02*
X16230600Y-5285000D01*
X16230000Y-5895000D02*
G75*
G02*
X16182500Y-5942500I-47500J0D01*
G01*
X13081000Y-5325000D02*
X13082500Y-10465000D01*
X15842500Y-5942500D02*
X16182500Y-5942500D01*
X16215000Y-9805000D02*
G75*
G02*
X16252500Y-9842500I0J-37500D01*
G01*
X13132500Y-10515600D02*
X16222500Y-10515000D01*
X16215000Y-9805000D02*
X15870000Y-9802500D01*
X15802500Y-9735000D02*
X15800000Y-5985000D01*
X13081000Y-5325000D02*
G75*
G02*
X13175000Y-5231000I94000J0D01*
G01*
X13132500Y-10515600D02*
G75*
G02*
X13082500Y-10465600I0J50000D01*
G01*
X16252500Y-10485000D02*
G75*
G02*
X16222500Y-10515000I-30000J0D01*
G01*
X15800000Y-5985000D02*
G75*
G02*
X15842500Y-5942500I42500J0D01*
G01*
X16177500Y-5232500D02*
X13175000Y-5231000D01*
X16252500Y-10485000D02*
X16252500Y-9842500D01*
X16177500Y-5232500D02*
G75*
G02*
X16230000Y-5285000I0J-52500D01*
G01*
D11*
D12*
X13897500Y-9208100D02*
X13927500Y-9238100D01*
X13927500Y-9208100D02*
X13897500Y-9238100D01*
X14270000Y-9740000D02*
X14300000Y-9770000D01*
X14300000Y-9740000D02*
X14270000Y-9770000D01*
X14567500Y-9570000D02*
G75*
G02*
X14497500Y-9570000I-35000J0D01*
G01*
X14497500Y-9570000D02*
G75*
G02*
X14567500Y-9570000I35000J0D01*
G01*
X14570000Y-9345000D02*
G75*
G02*
X14500000Y-9345000I-35000J0D01*
G01*
X14500000Y-9345000D02*
G75*
G02*
X14570000Y-9345000I35000J0D01*
G01*
X14837500Y-7822500D02*
G75*
G02*
X14767500Y-7822500I-35000J0D01*
G01*
X14767500Y-7822500D02*
G75*
G02*
X14837500Y-7822500I35000J0D01*
G01*
X15329500Y-9570000D02*
G75*
G02*
X15259500Y-9570000I-35000J0D01*
G01*
X15259500Y-9570000D02*
G75*
G02*
X15329500Y-9570000I35000J0D01*
G01*
X15332000Y-9345000D02*
G75*
G02*
X15262000Y-9345000I-35000J0D01*
G01*
X15262000Y-9345000D02*
G75*
G02*
X15332000Y-9345000I35000J0D01*
G01*
X15599500Y-7822500D02*
G75*
G02*
X15529500Y-7822500I-35000J0D01*
G01*
X15529500Y-7822500D02*
G75*
G02*
X15599500Y-7822500I35000J0D01*
G01*
X13613500Y-5929000D02*
X13613500Y-6009000D01*
X13573500Y-5969000D02*
X13653500Y-5969000D01*
X13613500Y-6310000D02*
X13613500Y-6390000D01*
X13573500Y-6350000D02*
X13653500Y-6350000D01*
X13863500Y-5929000D02*
X13863500Y-6009000D01*
X13823500Y-5969000D02*
X13903500Y-5969000D01*
X13863500Y-6310000D02*
X13863500Y-6390000D01*
X13823500Y-6350000D02*
X13903500Y-6350000D01*
X14291500Y-6310000D02*
X14291500Y-6390000D01*
X14251500Y-6350000D02*
X14331500Y-6350000D01*
X14541500Y-6310000D02*
X14541500Y-6390000D01*
X14501500Y-6350000D02*
X14581500Y-6350000D01*
X15234320Y-8340320D02*
X15234320Y-8276680D01*
X15170680Y-8276680D01*
X15170680Y-8340320D01*
X15234320Y-8340320D01*
X15234320Y-8594320D02*
X15234320Y-8530680D01*
X15170680Y-8530680D01*
X15170680Y-8594320D01*
X15234320Y-8594320D01*
X13906500Y-7924000D02*
X13956500Y-7874000D01*
X13906500Y-7824000D01*
X13856500Y-7874000D01*
X13906500Y-7924000D01*
X13856500Y-7774000D02*
X13856500Y-7974000D01*
X13956500Y-7974000D02*
G75*
G02*
X13856500Y-7974000I-50000J0D01*
G01*
X13956500Y-7974000D02*
X13956500Y-7774000D01*
X13956500Y-7774000D02*
G75*
G03*
X13856500Y-7774000I-50000J0D01*
G01*
X13970000Y-5511000D02*
X14020000Y-5461000D01*
X13970000Y-5411000D01*
X13920000Y-5461000D01*
X13970000Y-5511000D01*
X13970000Y-10337000D02*
X14020000Y-10287000D01*
X13970000Y-10237000D01*
X13920000Y-10287000D01*
X13970000Y-10337000D01*
X14206500Y-8394000D02*
X14256500Y-8344000D01*
X14206500Y-8294000D01*
X14156500Y-8344000D01*
X14206500Y-8394000D01*
X14106500Y-8394000D02*
X14306500Y-8394000D01*
X14306500Y-8294000D02*
G75*
G02*
X14306500Y-8394000I0J-50000D01*
G01*
X14306500Y-8294000D02*
X14106500Y-8294000D01*
X14106500Y-8294000D02*
G75*
G03*
X14106500Y-8394000I0J-50000D01*
G01*
X14224000Y-5511000D02*
X14274000Y-5461000D01*
X14224000Y-5411000D01*
X14174000Y-5461000D01*
X14224000Y-5511000D01*
X14224000Y-10337000D02*
X14274000Y-10287000D01*
X14224000Y-10237000D01*
X14174000Y-10287000D01*
X14224000Y-10337000D01*
X14478000Y-5511000D02*
X14528000Y-5461000D01*
X14478000Y-5411000D01*
X14428000Y-5461000D01*
X14478000Y-5511000D01*
X14478000Y-10337000D02*
X14528000Y-10287000D01*
X14478000Y-10237000D01*
X14428000Y-10287000D01*
X14478000Y-10337000D01*
X14506500Y-7924000D02*
X14556500Y-7874000D01*
X14506500Y-7824000D01*
X14456500Y-7874000D01*
X14506500Y-7924000D01*
X14456500Y-7774000D02*
X14456500Y-7974000D01*
X14556500Y-7974000D02*
G75*
G02*
X14456500Y-7974000I-50000J0D01*
G01*
X14556500Y-7974000D02*
X14556500Y-7774000D01*
X14556500Y-7774000D02*
G75*
G03*
X14456500Y-7774000I-50000J0D01*
G01*
X16002000Y-5510500D02*
X16052000Y-5460500D01*
X16002000Y-5410500D01*
X15952000Y-5460500D01*
X16002000Y-5510500D01*
X16002000Y-5764500D02*
X16052000Y-5714500D01*
X16002000Y-5664500D01*
X15952000Y-5714500D01*
X16002000Y-5764500D01*
X16002000Y-10083000D02*
X16052000Y-10033000D01*
X16002000Y-9983000D01*
X15952000Y-10033000D01*
X16002000Y-10083000D01*
X16002000Y-10337000D02*
X16052000Y-10287000D01*
X16002000Y-10237000D01*
X15952000Y-10287000D01*
X16002000Y-10337000D01*
D13*
X13724500Y-6930000D02*
X13834500Y-7040000D01*
X13834500Y-6930000D02*
X13724500Y-7040000D01*
X13834500Y-6985000D02*
G75*
G02*
X13724500Y-6985000I-55000J0D01*
G01*
X13724500Y-6985000D02*
G75*
G02*
X13834500Y-6985000I55000J0D01*
G01*
X13724500Y-9025500D02*
X13834500Y-9135500D01*
X13834500Y-9025500D02*
X13724500Y-9135500D01*
X13834500Y-9080500D02*
G75*
G02*
X13724500Y-9080500I-55000J0D01*
G01*
X13724500Y-9080500D02*
G75*
G02*
X13834500Y-9080500I55000J0D01*
G01*
X13978500Y-6930000D02*
X14088500Y-7040000D01*
X14088500Y-6930000D02*
X13978500Y-7040000D01*
X14088500Y-6985000D02*
G75*
G02*
X13978500Y-6985000I-55000J0D01*
G01*
X13978500Y-6985000D02*
G75*
G02*
X14088500Y-6985000I55000J0D01*
G01*
X13978500Y-9025500D02*
X14088500Y-9135500D01*
X14088500Y-9025500D02*
X13978500Y-9135500D01*
X14088500Y-9080500D02*
G75*
G02*
X13978500Y-9080500I-55000J0D01*
G01*
X13978500Y-9080500D02*
G75*
G02*
X14088500Y-9080500I55000J0D01*
G01*
X14232500Y-6930000D02*
X14342500Y-7040000D01*
X14342500Y-6930000D02*
X14232500Y-7040000D01*
X14342500Y-6985000D02*
G75*
G02*
X14232500Y-6985000I-55000J0D01*
G01*
X14232500Y-6985000D02*
G75*
G02*
X14342500Y-6985000I55000J0D01*
G01*
X14232500Y-9025500D02*
X14342500Y-9135500D01*
X14342500Y-9025500D02*
X14232500Y-9135500D01*
X14342500Y-9080500D02*
G75*
G02*
X14232500Y-9080500I-55000J0D01*
G01*
X14232500Y-9080500D02*
G75*
G02*
X14342500Y-9080500I55000J0D01*
G01*
D14*
X14874000Y-5566500D02*
X15026000Y-5718500D01*
X15026000Y-5566500D02*
X14874000Y-5718500D01*
X14950000Y-5566500D02*
X14950000Y-5718500D01*
X14874000Y-5642500D02*
X15026000Y-5642500D01*
X14910000Y-10020500D02*
X15062000Y-10172500D01*
X15062000Y-10020500D02*
X14910000Y-10172500D01*
X14986000Y-10020500D02*
X14986000Y-10172500D01*
X14910000Y-10096500D02*
X15062000Y-10096500D01*
X15382000Y-5566500D02*
X15534000Y-5718500D01*
X15534000Y-5566500D02*
X15382000Y-5718500D01*
X15458000Y-5566500D02*
X15458000Y-5718500D01*
X15382000Y-5642500D02*
X15534000Y-5642500D01*
X15418000Y-10020500D02*
X15570000Y-10172500D01*
X15570000Y-10020500D02*
X15418000Y-10172500D01*
X15494000Y-10020500D02*
X15494000Y-10172500D01*
X15418000Y-10096500D02*
X15570000Y-10096500D01*
D11*
X13339277Y-10829584D02*
X13339277Y-10629584D01*
X13339277Y-10629584D02*
X13386896Y-10629584D01*
X13386896Y-10629584D02*
X13415467Y-10639108D01*
X13415467Y-10639108D02*
X13434515Y-10658155D01*
X13434515Y-10658155D02*
X13444039Y-10677203D01*
X13444039Y-10677203D02*
X13453562Y-10715298D01*
X13453562Y-10715298D02*
X13453562Y-10743870D01*
X13453562Y-10743870D02*
X13444039Y-10781965D01*
X13444039Y-10781965D02*
X13434515Y-10801012D01*
X13434515Y-10801012D02*
X13415467Y-10820060D01*
X13415467Y-10820060D02*
X13386896Y-10829584D01*
X13386896Y-10829584D02*
X13339277Y-10829584D01*
X13539277Y-10829584D02*
X13539277Y-10696250D01*
X13539277Y-10734346D02*
X13548801Y-10715298D01*
X13548801Y-10715298D02*
X13558324Y-10705774D01*
X13558324Y-10705774D02*
X13577372Y-10696250D01*
X13577372Y-10696250D02*
X13596420Y-10696250D01*
X13663086Y-10829584D02*
X13663086Y-10696250D01*
X13663086Y-10629584D02*
X13653562Y-10639108D01*
X13653562Y-10639108D02*
X13663086Y-10648631D01*
X13663086Y-10648631D02*
X13672610Y-10639108D01*
X13672610Y-10639108D02*
X13663086Y-10629584D01*
X13663086Y-10629584D02*
X13663086Y-10648631D01*
X13786896Y-10829584D02*
X13767848Y-10820060D01*
X13767848Y-10820060D02*
X13758324Y-10801012D01*
X13758324Y-10801012D02*
X13758324Y-10629584D01*
X13891658Y-10829584D02*
X13872610Y-10820060D01*
X13872610Y-10820060D02*
X13863086Y-10801012D01*
X13863086Y-10801012D02*
X13863086Y-10629584D01*
X14120229Y-10829584D02*
X14120229Y-10629584D01*
X14120229Y-10629584D02*
X14186896Y-10772441D01*
X14186896Y-10772441D02*
X14253562Y-10629584D01*
X14253562Y-10629584D02*
X14253562Y-10829584D01*
X14434515Y-10829584D02*
X14434515Y-10724822D01*
X14434515Y-10724822D02*
X14424991Y-10705774D01*
X14424991Y-10705774D02*
X14405943Y-10696250D01*
X14405943Y-10696250D02*
X14367848Y-10696250D01*
X14367848Y-10696250D02*
X14348801Y-10705774D01*
X14434515Y-10820060D02*
X14415467Y-10829584D01*
X14415467Y-10829584D02*
X14367848Y-10829584D01*
X14367848Y-10829584D02*
X14348801Y-10820060D01*
X14348801Y-10820060D02*
X14339277Y-10801012D01*
X14339277Y-10801012D02*
X14339277Y-10781965D01*
X14339277Y-10781965D02*
X14348801Y-10762917D01*
X14348801Y-10762917D02*
X14367848Y-10753393D01*
X14367848Y-10753393D02*
X14415467Y-10753393D01*
X14415467Y-10753393D02*
X14434515Y-10743870D01*
X14529753Y-10696250D02*
X14529753Y-10896250D01*
X14529753Y-10705774D02*
X14548801Y-10696250D01*
X14548801Y-10696250D02*
X14586896Y-10696250D01*
X14586896Y-10696250D02*
X14605943Y-10705774D01*
X14605943Y-10705774D02*
X14615467Y-10715298D01*
X14615467Y-10715298D02*
X14624991Y-10734346D01*
X14624991Y-10734346D02*
X14624991Y-10791489D01*
X14624991Y-10791489D02*
X14615467Y-10810536D01*
X14615467Y-10810536D02*
X14605943Y-10820060D01*
X14605943Y-10820060D02*
X14586896Y-10829584D01*
X14586896Y-10829584D02*
X14548801Y-10829584D01*
X14548801Y-10829584D02*
X14529753Y-10820060D01*
X14710705Y-10810536D02*
X14720229Y-10820060D01*
X14720229Y-10820060D02*
X14710705Y-10829584D01*
X14710705Y-10829584D02*
X14701182Y-10820060D01*
X14701182Y-10820060D02*
X14710705Y-10810536D01*
X14710705Y-10810536D02*
X14710705Y-10829584D01*
X14710705Y-10705774D02*
X14720229Y-10715298D01*
X14720229Y-10715298D02*
X14710705Y-10724822D01*
X14710705Y-10724822D02*
X14701182Y-10715298D01*
X14701182Y-10715298D02*
X14710705Y-10705774D01*
X14710705Y-10705774D02*
X14710705Y-10724822D01*
D12*
X13048500Y-11143100D02*
X13078500Y-11173100D01*
X13078500Y-11143100D02*
X13048500Y-11173100D01*
D11*
X13377372Y-11049584D02*
X13396420Y-11049584D01*
X13396420Y-11049584D02*
X13415467Y-11059108D01*
X13415467Y-11059108D02*
X13424991Y-11068631D01*
X13424991Y-11068631D02*
X13434515Y-11087679D01*
X13434515Y-11087679D02*
X13444039Y-11125774D01*
X13444039Y-11125774D02*
X13444039Y-11173393D01*
X13444039Y-11173393D02*
X13434515Y-11211488D01*
X13434515Y-11211488D02*
X13424991Y-11230536D01*
X13424991Y-11230536D02*
X13415467Y-11240060D01*
X13415467Y-11240060D02*
X13396420Y-11249584D01*
X13396420Y-11249584D02*
X13377372Y-11249584D01*
X13377372Y-11249584D02*
X13358324Y-11240060D01*
X13358324Y-11240060D02*
X13348801Y-11230536D01*
X13348801Y-11230536D02*
X13339277Y-11211488D01*
X13339277Y-11211488D02*
X13329753Y-11173393D01*
X13329753Y-11173393D02*
X13329753Y-11125774D01*
X13329753Y-11125774D02*
X13339277Y-11087679D01*
X13339277Y-11087679D02*
X13348801Y-11068631D01*
X13348801Y-11068631D02*
X13358324Y-11059108D01*
X13358324Y-11059108D02*
X13377372Y-11049584D01*
X13529753Y-11230536D02*
X13539277Y-11240060D01*
X13539277Y-11240060D02*
X13529753Y-11249584D01*
X13529753Y-11249584D02*
X13520229Y-11240060D01*
X13520229Y-11240060D02*
X13529753Y-11230536D01*
X13529753Y-11230536D02*
X13529753Y-11249584D01*
X13605943Y-11049584D02*
X13729753Y-11049584D01*
X13729753Y-11049584D02*
X13663086Y-11125774D01*
X13663086Y-11125774D02*
X13691658Y-11125774D01*
X13691658Y-11125774D02*
X13710705Y-11135298D01*
X13710705Y-11135298D02*
X13720229Y-11144822D01*
X13720229Y-11144822D02*
X13729753Y-11163870D01*
X13729753Y-11163870D02*
X13729753Y-11211488D01*
X13729753Y-11211488D02*
X13720229Y-11230536D01*
X13720229Y-11230536D02*
X13710705Y-11240060D01*
X13710705Y-11240060D02*
X13691658Y-11249584D01*
X13691658Y-11249584D02*
X13634515Y-11249584D01*
X13634515Y-11249584D02*
X13615467Y-11240060D01*
X13615467Y-11240060D02*
X13605943Y-11230536D01*
X13853562Y-11049584D02*
X13872610Y-11049584D01*
X13872610Y-11049584D02*
X13891658Y-11059108D01*
X13891658Y-11059108D02*
X13901182Y-11068631D01*
X13901182Y-11068631D02*
X13910705Y-11087679D01*
X13910705Y-11087679D02*
X13920229Y-11125774D01*
X13920229Y-11125774D02*
X13920229Y-11173393D01*
X13920229Y-11173393D02*
X13910705Y-11211488D01*
X13910705Y-11211488D02*
X13901182Y-11230536D01*
X13901182Y-11230536D02*
X13891658Y-11240060D01*
X13891658Y-11240060D02*
X13872610Y-11249584D01*
X13872610Y-11249584D02*
X13853562Y-11249584D01*
X13853562Y-11249584D02*
X13834515Y-11240060D01*
X13834515Y-11240060D02*
X13824991Y-11230536D01*
X13824991Y-11230536D02*
X13815467Y-11211488D01*
X13815467Y-11211488D02*
X13805943Y-11173393D01*
X13805943Y-11173393D02*
X13805943Y-11125774D01*
X13805943Y-11125774D02*
X13815467Y-11087679D01*
X13815467Y-11087679D02*
X13824991Y-11068631D01*
X13824991Y-11068631D02*
X13834515Y-11059108D01*
X13834515Y-11059108D02*
X13853562Y-11049584D01*
X14044039Y-11049584D02*
X14063086Y-11049584D01*
X14063086Y-11049584D02*
X14082134Y-11059108D01*
X14082134Y-11059108D02*
X14091658Y-11068631D01*
X14091658Y-11068631D02*
X14101182Y-11087679D01*
X14101182Y-11087679D02*
X14110705Y-11125774D01*
X14110705Y-11125774D02*
X14110705Y-11173393D01*
X14110705Y-11173393D02*
X14101182Y-11211488D01*
X14101182Y-11211488D02*
X14091658Y-11230536D01*
X14091658Y-11230536D02*
X14082134Y-11240060D01*
X14082134Y-11240060D02*
X14063086Y-11249584D01*
X14063086Y-11249584D02*
X14044039Y-11249584D01*
X14044039Y-11249584D02*
X14024991Y-11240060D01*
X14024991Y-11240060D02*
X14015467Y-11230536D01*
X14015467Y-11230536D02*
X14005943Y-11211488D01*
X14005943Y-11211488D02*
X13996420Y-11173393D01*
X13996420Y-11173393D02*
X13996420Y-11125774D01*
X13996420Y-11125774D02*
X14005943Y-11087679D01*
X14005943Y-11087679D02*
X14015467Y-11068631D01*
X14015467Y-11068631D02*
X14024991Y-11059108D01*
X14024991Y-11059108D02*
X14044039Y-11049584D01*
X14196420Y-11249584D02*
X14196420Y-11116250D01*
X14196420Y-11135298D02*
X14205943Y-11125774D01*
X14205943Y-11125774D02*
X14224991Y-11116250D01*
X14224991Y-11116250D02*
X14253563Y-11116250D01*
X14253563Y-11116250D02*
X14272610Y-11125774D01*
X14272610Y-11125774D02*
X14282134Y-11144822D01*
X14282134Y-11144822D02*
X14282134Y-11249584D01*
X14282134Y-11144822D02*
X14291658Y-11125774D01*
X14291658Y-11125774D02*
X14310705Y-11116250D01*
X14310705Y-11116250D02*
X14339277Y-11116250D01*
X14339277Y-11116250D02*
X14358324Y-11125774D01*
X14358324Y-11125774D02*
X14367848Y-11144822D01*
X14367848Y-11144822D02*
X14367848Y-11249584D01*
X14463086Y-11249584D02*
X14463086Y-11116250D01*
X14463086Y-11135298D02*
X14472610Y-11125774D01*
X14472610Y-11125774D02*
X14491658Y-11116250D01*
X14491658Y-11116250D02*
X14520229Y-11116250D01*
X14520229Y-11116250D02*
X14539277Y-11125774D01*
X14539277Y-11125774D02*
X14548801Y-11144822D01*
X14548801Y-11144822D02*
X14548801Y-11249584D01*
X14548801Y-11144822D02*
X14558324Y-11125774D01*
X14558324Y-11125774D02*
X14577372Y-11116250D01*
X14577372Y-11116250D02*
X14605943Y-11116250D01*
X14605943Y-11116250D02*
X14624991Y-11125774D01*
X14624991Y-11125774D02*
X14634515Y-11144822D01*
X14634515Y-11144822D02*
X14634515Y-11249584D01*
X15024991Y-11040060D02*
X14853563Y-11297203D01*
X15282134Y-11049584D02*
X15301182Y-11049584D01*
X15301182Y-11049584D02*
X15320229Y-11059108D01*
X15320229Y-11059108D02*
X15329753Y-11068631D01*
X15329753Y-11068631D02*
X15339277Y-11087679D01*
X15339277Y-11087679D02*
X15348801Y-11125774D01*
X15348801Y-11125774D02*
X15348801Y-11173393D01*
X15348801Y-11173393D02*
X15339277Y-11211488D01*
X15339277Y-11211488D02*
X15329753Y-11230536D01*
X15329753Y-11230536D02*
X15320229Y-11240060D01*
X15320229Y-11240060D02*
X15301182Y-11249584D01*
X15301182Y-11249584D02*
X15282134Y-11249584D01*
X15282134Y-11249584D02*
X15263086Y-11240060D01*
X15263086Y-11240060D02*
X15253563Y-11230536D01*
X15253563Y-11230536D02*
X15244039Y-11211488D01*
X15244039Y-11211488D02*
X15234515Y-11173393D01*
X15234515Y-11173393D02*
X15234515Y-11125774D01*
X15234515Y-11125774D02*
X15244039Y-11087679D01*
X15244039Y-11087679D02*
X15253563Y-11068631D01*
X15253563Y-11068631D02*
X15263086Y-11059108D01*
X15263086Y-11059108D02*
X15282134Y-11049584D01*
X15434515Y-11230536D02*
X15444039Y-11240060D01*
X15444039Y-11240060D02*
X15434515Y-11249584D01*
X15434515Y-11249584D02*
X15424991Y-11240060D01*
X15424991Y-11240060D02*
X15434515Y-11230536D01*
X15434515Y-11230536D02*
X15434515Y-11249584D01*
X15567848Y-11049584D02*
X15586896Y-11049584D01*
X15586896Y-11049584D02*
X15605944Y-11059108D01*
X15605944Y-11059108D02*
X15615467Y-11068631D01*
X15615467Y-11068631D02*
X15624991Y-11087679D01*
X15624991Y-11087679D02*
X15634515Y-11125774D01*
X15634515Y-11125774D02*
X15634515Y-11173393D01*
X15634515Y-11173393D02*
X15624991Y-11211488D01*
X15624991Y-11211488D02*
X15615467Y-11230536D01*
X15615467Y-11230536D02*
X15605944Y-11240060D01*
X15605944Y-11240060D02*
X15586896Y-11249584D01*
X15586896Y-11249584D02*
X15567848Y-11249584D01*
X15567848Y-11249584D02*
X15548801Y-11240060D01*
X15548801Y-11240060D02*
X15539277Y-11230536D01*
X15539277Y-11230536D02*
X15529753Y-11211488D01*
X15529753Y-11211488D02*
X15520229Y-11173393D01*
X15520229Y-11173393D02*
X15520229Y-11125774D01*
X15520229Y-11125774D02*
X15529753Y-11087679D01*
X15529753Y-11087679D02*
X15539277Y-11068631D01*
X15539277Y-11068631D02*
X15548801Y-11059108D01*
X15548801Y-11059108D02*
X15567848Y-11049584D01*
X15824991Y-11249584D02*
X15710706Y-11249584D01*
X15767848Y-11249584D02*
X15767848Y-11049584D01*
X15767848Y-11049584D02*
X15748801Y-11078155D01*
X15748801Y-11078155D02*
X15729753Y-11097203D01*
X15729753Y-11097203D02*
X15710706Y-11106727D01*
X16015467Y-11249584D02*
X15901182Y-11249584D01*
X15958325Y-11249584D02*
X15958325Y-11049584D01*
X15958325Y-11049584D02*
X15939277Y-11078155D01*
X15939277Y-11078155D02*
X15920229Y-11097203D01*
X15920229Y-11097203D02*
X15901182Y-11106727D01*
X16129753Y-11135298D02*
X16110706Y-11125774D01*
X16110706Y-11125774D02*
X16101182Y-11116250D01*
X16101182Y-11116250D02*
X16091658Y-11097203D01*
X16091658Y-11097203D02*
X16091658Y-11087679D01*
X16091658Y-11087679D02*
X16101182Y-11068631D01*
X16101182Y-11068631D02*
X16110706Y-11059108D01*
X16110706Y-11059108D02*
X16129753Y-11049584D01*
X16129753Y-11049584D02*
X16167848Y-11049584D01*
X16167848Y-11049584D02*
X16186896Y-11059108D01*
X16186896Y-11059108D02*
X16196420Y-11068631D01*
X16196420Y-11068631D02*
X16205944Y-11087679D01*
X16205944Y-11087679D02*
X16205944Y-11097203D01*
X16205944Y-11097203D02*
X16196420Y-11116250D01*
X16196420Y-11116250D02*
X16186896Y-11125774D01*
X16186896Y-11125774D02*
X16167848Y-11135298D01*
X16167848Y-11135298D02*
X16129753Y-11135298D01*
X16129753Y-11135298D02*
X16110706Y-11144822D01*
X16110706Y-11144822D02*
X16101182Y-11154346D01*
X16101182Y-11154346D02*
X16091658Y-11173393D01*
X16091658Y-11173393D02*
X16091658Y-11211488D01*
X16091658Y-11211488D02*
X16101182Y-11230536D01*
X16101182Y-11230536D02*
X16110706Y-11240060D01*
X16110706Y-11240060D02*
X16129753Y-11249584D01*
X16129753Y-11249584D02*
X16167848Y-11249584D01*
X16167848Y-11249584D02*
X16186896Y-11240060D01*
X16186896Y-11240060D02*
X16196420Y-11230536D01*
X16196420Y-11230536D02*
X16205944Y-11211488D01*
X16205944Y-11211488D02*
X16205944Y-11173393D01*
X16205944Y-11173393D02*
X16196420Y-11154346D01*
X16196420Y-11154346D02*
X16186896Y-11144822D01*
X16186896Y-11144822D02*
X16167848Y-11135298D01*
X16282134Y-11049584D02*
X16282134Y-11087679D01*
X16358325Y-11049584D02*
X16358325Y-11087679D01*
X16653563Y-11325774D02*
X16644039Y-11316250D01*
X16644039Y-11316250D02*
X16624991Y-11287679D01*
X16624991Y-11287679D02*
X16615468Y-11268631D01*
X16615468Y-11268631D02*
X16605944Y-11240060D01*
X16605944Y-11240060D02*
X16596420Y-11192441D01*
X16596420Y-11192441D02*
X16596420Y-11154346D01*
X16596420Y-11154346D02*
X16605944Y-11106727D01*
X16605944Y-11106727D02*
X16615468Y-11078155D01*
X16615468Y-11078155D02*
X16624991Y-11059108D01*
X16624991Y-11059108D02*
X16644039Y-11030536D01*
X16644039Y-11030536D02*
X16653563Y-11021012D01*
X16720229Y-11068631D02*
X16729753Y-11059108D01*
X16729753Y-11059108D02*
X16748801Y-11049584D01*
X16748801Y-11049584D02*
X16796420Y-11049584D01*
X16796420Y-11049584D02*
X16815468Y-11059108D01*
X16815468Y-11059108D02*
X16824991Y-11068631D01*
X16824991Y-11068631D02*
X16834515Y-11087679D01*
X16834515Y-11087679D02*
X16834515Y-11106727D01*
X16834515Y-11106727D02*
X16824991Y-11135298D01*
X16824991Y-11135298D02*
X16710706Y-11249584D01*
X16710706Y-11249584D02*
X16834515Y-11249584D01*
X17072611Y-11249584D02*
X17072611Y-11049584D01*
X17158325Y-11249584D02*
X17158325Y-11144822D01*
X17158325Y-11144822D02*
X17148801Y-11125774D01*
X17148801Y-11125774D02*
X17129753Y-11116250D01*
X17129753Y-11116250D02*
X17101182Y-11116250D01*
X17101182Y-11116250D02*
X17082134Y-11125774D01*
X17082134Y-11125774D02*
X17072611Y-11135298D01*
X17282134Y-11249584D02*
X17263087Y-11240060D01*
X17263087Y-11240060D02*
X17253563Y-11230536D01*
X17253563Y-11230536D02*
X17244039Y-11211488D01*
X17244039Y-11211488D02*
X17244039Y-11154346D01*
X17244039Y-11154346D02*
X17253563Y-11135298D01*
X17253563Y-11135298D02*
X17263087Y-11125774D01*
X17263087Y-11125774D02*
X17282134Y-11116250D01*
X17282134Y-11116250D02*
X17310706Y-11116250D01*
X17310706Y-11116250D02*
X17329753Y-11125774D01*
X17329753Y-11125774D02*
X17339277Y-11135298D01*
X17339277Y-11135298D02*
X17348801Y-11154346D01*
X17348801Y-11154346D02*
X17348801Y-11211488D01*
X17348801Y-11211488D02*
X17339277Y-11230536D01*
X17339277Y-11230536D02*
X17329753Y-11240060D01*
X17329753Y-11240060D02*
X17310706Y-11249584D01*
X17310706Y-11249584D02*
X17282134Y-11249584D01*
X17463087Y-11249584D02*
X17444039Y-11240060D01*
X17444039Y-11240060D02*
X17434515Y-11221012D01*
X17434515Y-11221012D02*
X17434515Y-11049584D01*
X17615468Y-11240060D02*
X17596420Y-11249584D01*
X17596420Y-11249584D02*
X17558325Y-11249584D01*
X17558325Y-11249584D02*
X17539277Y-11240060D01*
X17539277Y-11240060D02*
X17529753Y-11221012D01*
X17529753Y-11221012D02*
X17529753Y-11144822D01*
X17529753Y-11144822D02*
X17539277Y-11125774D01*
X17539277Y-11125774D02*
X17558325Y-11116250D01*
X17558325Y-11116250D02*
X17596420Y-11116250D01*
X17596420Y-11116250D02*
X17615468Y-11125774D01*
X17615468Y-11125774D02*
X17624992Y-11144822D01*
X17624992Y-11144822D02*
X17624992Y-11163870D01*
X17624992Y-11163870D02*
X17529753Y-11182917D01*
X17701182Y-11240060D02*
X17720230Y-11249584D01*
X17720230Y-11249584D02*
X17758325Y-11249584D01*
X17758325Y-11249584D02*
X17777373Y-11240060D01*
X17777373Y-11240060D02*
X17786896Y-11221012D01*
X17786896Y-11221012D02*
X17786896Y-11211488D01*
X17786896Y-11211488D02*
X17777373Y-11192441D01*
X17777373Y-11192441D02*
X17758325Y-11182917D01*
X17758325Y-11182917D02*
X17729753Y-11182917D01*
X17729753Y-11182917D02*
X17710706Y-11173393D01*
X17710706Y-11173393D02*
X17701182Y-11154346D01*
X17701182Y-11154346D02*
X17701182Y-11144822D01*
X17701182Y-11144822D02*
X17710706Y-11125774D01*
X17710706Y-11125774D02*
X17729753Y-11116250D01*
X17729753Y-11116250D02*
X17758325Y-11116250D01*
X17758325Y-11116250D02*
X17777373Y-11125774D01*
X17853563Y-11325774D02*
X17863087Y-11316250D01*
X17863087Y-11316250D02*
X17882134Y-11287679D01*
X17882134Y-11287679D02*
X17891658Y-11268631D01*
X17891658Y-11268631D02*
X17901182Y-11240060D01*
X17901182Y-11240060D02*
X17910706Y-11192441D01*
X17910706Y-11192441D02*
X17910706Y-11154346D01*
X17910706Y-11154346D02*
X17901182Y-11106727D01*
X17901182Y-11106727D02*
X17891658Y-11078155D01*
X17891658Y-11078155D02*
X17882134Y-11059108D01*
X17882134Y-11059108D02*
X17863087Y-11030536D01*
X17863087Y-11030536D02*
X17853563Y-11021012D01*
D12*
X13078500Y-11422100D02*
G75*
G02*
X13008500Y-11422100I-35000J0D01*
G01*
X13008500Y-11422100D02*
G75*
G02*
X13078500Y-11422100I35000J0D01*
G01*
D11*
X13377372Y-11313584D02*
X13396420Y-11313584D01*
X13396420Y-11313584D02*
X13415467Y-11323108D01*
X13415467Y-11323108D02*
X13424991Y-11332631D01*
X13424991Y-11332631D02*
X13434515Y-11351679D01*
X13434515Y-11351679D02*
X13444039Y-11389774D01*
X13444039Y-11389774D02*
X13444039Y-11437393D01*
X13444039Y-11437393D02*
X13434515Y-11475488D01*
X13434515Y-11475488D02*
X13424991Y-11494536D01*
X13424991Y-11494536D02*
X13415467Y-11504060D01*
X13415467Y-11504060D02*
X13396420Y-11513584D01*
X13396420Y-11513584D02*
X13377372Y-11513584D01*
X13377372Y-11513584D02*
X13358324Y-11504060D01*
X13358324Y-11504060D02*
X13348801Y-11494536D01*
X13348801Y-11494536D02*
X13339277Y-11475488D01*
X13339277Y-11475488D02*
X13329753Y-11437393D01*
X13329753Y-11437393D02*
X13329753Y-11389774D01*
X13329753Y-11389774D02*
X13339277Y-11351679D01*
X13339277Y-11351679D02*
X13348801Y-11332631D01*
X13348801Y-11332631D02*
X13358324Y-11323108D01*
X13358324Y-11323108D02*
X13377372Y-11313584D01*
X13529753Y-11494536D02*
X13539277Y-11504060D01*
X13539277Y-11504060D02*
X13529753Y-11513584D01*
X13529753Y-11513584D02*
X13520229Y-11504060D01*
X13520229Y-11504060D02*
X13529753Y-11494536D01*
X13529753Y-11494536D02*
X13529753Y-11513584D01*
X13605943Y-11313584D02*
X13739277Y-11313584D01*
X13739277Y-11313584D02*
X13653562Y-11513584D01*
X13853562Y-11313584D02*
X13872610Y-11313584D01*
X13872610Y-11313584D02*
X13891658Y-11323108D01*
X13891658Y-11323108D02*
X13901182Y-11332631D01*
X13901182Y-11332631D02*
X13910705Y-11351679D01*
X13910705Y-11351679D02*
X13920229Y-11389774D01*
X13920229Y-11389774D02*
X13920229Y-11437393D01*
X13920229Y-11437393D02*
X13910705Y-11475488D01*
X13910705Y-11475488D02*
X13901182Y-11494536D01*
X13901182Y-11494536D02*
X13891658Y-11504060D01*
X13891658Y-11504060D02*
X13872610Y-11513584D01*
X13872610Y-11513584D02*
X13853562Y-11513584D01*
X13853562Y-11513584D02*
X13834515Y-11504060D01*
X13834515Y-11504060D02*
X13824991Y-11494536D01*
X13824991Y-11494536D02*
X13815467Y-11475488D01*
X13815467Y-11475488D02*
X13805943Y-11437393D01*
X13805943Y-11437393D02*
X13805943Y-11389774D01*
X13805943Y-11389774D02*
X13815467Y-11351679D01*
X13815467Y-11351679D02*
X13824991Y-11332631D01*
X13824991Y-11332631D02*
X13834515Y-11323108D01*
X13834515Y-11323108D02*
X13853562Y-11313584D01*
X14044039Y-11313584D02*
X14063086Y-11313584D01*
X14063086Y-11313584D02*
X14082134Y-11323108D01*
X14082134Y-11323108D02*
X14091658Y-11332631D01*
X14091658Y-11332631D02*
X14101182Y-11351679D01*
X14101182Y-11351679D02*
X14110705Y-11389774D01*
X14110705Y-11389774D02*
X14110705Y-11437393D01*
X14110705Y-11437393D02*
X14101182Y-11475488D01*
X14101182Y-11475488D02*
X14091658Y-11494536D01*
X14091658Y-11494536D02*
X14082134Y-11504060D01*
X14082134Y-11504060D02*
X14063086Y-11513584D01*
X14063086Y-11513584D02*
X14044039Y-11513584D01*
X14044039Y-11513584D02*
X14024991Y-11504060D01*
X14024991Y-11504060D02*
X14015467Y-11494536D01*
X14015467Y-11494536D02*
X14005943Y-11475488D01*
X14005943Y-11475488D02*
X13996420Y-11437393D01*
X13996420Y-11437393D02*
X13996420Y-11389774D01*
X13996420Y-11389774D02*
X14005943Y-11351679D01*
X14005943Y-11351679D02*
X14015467Y-11332631D01*
X14015467Y-11332631D02*
X14024991Y-11323108D01*
X14024991Y-11323108D02*
X14044039Y-11313584D01*
X14196420Y-11513584D02*
X14196420Y-11380250D01*
X14196420Y-11399298D02*
X14205943Y-11389774D01*
X14205943Y-11389774D02*
X14224991Y-11380250D01*
X14224991Y-11380250D02*
X14253563Y-11380250D01*
X14253563Y-11380250D02*
X14272610Y-11389774D01*
X14272610Y-11389774D02*
X14282134Y-11408822D01*
X14282134Y-11408822D02*
X14282134Y-11513584D01*
X14282134Y-11408822D02*
X14291658Y-11389774D01*
X14291658Y-11389774D02*
X14310705Y-11380250D01*
X14310705Y-11380250D02*
X14339277Y-11380250D01*
X14339277Y-11380250D02*
X14358324Y-11389774D01*
X14358324Y-11389774D02*
X14367848Y-11408822D01*
X14367848Y-11408822D02*
X14367848Y-11513584D01*
X14463086Y-11513584D02*
X14463086Y-11380250D01*
X14463086Y-11399298D02*
X14472610Y-11389774D01*
X14472610Y-11389774D02*
X14491658Y-11380250D01*
X14491658Y-11380250D02*
X14520229Y-11380250D01*
X14520229Y-11380250D02*
X14539277Y-11389774D01*
X14539277Y-11389774D02*
X14548801Y-11408822D01*
X14548801Y-11408822D02*
X14548801Y-11513584D01*
X14548801Y-11408822D02*
X14558324Y-11389774D01*
X14558324Y-11389774D02*
X14577372Y-11380250D01*
X14577372Y-11380250D02*
X14605943Y-11380250D01*
X14605943Y-11380250D02*
X14624991Y-11389774D01*
X14624991Y-11389774D02*
X14634515Y-11408822D01*
X14634515Y-11408822D02*
X14634515Y-11513584D01*
X15024991Y-11304060D02*
X14853563Y-11561203D01*
X15282134Y-11313584D02*
X15301182Y-11313584D01*
X15301182Y-11313584D02*
X15320229Y-11323108D01*
X15320229Y-11323108D02*
X15329753Y-11332631D01*
X15329753Y-11332631D02*
X15339277Y-11351679D01*
X15339277Y-11351679D02*
X15348801Y-11389774D01*
X15348801Y-11389774D02*
X15348801Y-11437393D01*
X15348801Y-11437393D02*
X15339277Y-11475488D01*
X15339277Y-11475488D02*
X15329753Y-11494536D01*
X15329753Y-11494536D02*
X15320229Y-11504060D01*
X15320229Y-11504060D02*
X15301182Y-11513584D01*
X15301182Y-11513584D02*
X15282134Y-11513584D01*
X15282134Y-11513584D02*
X15263086Y-11504060D01*
X15263086Y-11504060D02*
X15253563Y-11494536D01*
X15253563Y-11494536D02*
X15244039Y-11475488D01*
X15244039Y-11475488D02*
X15234515Y-11437393D01*
X15234515Y-11437393D02*
X15234515Y-11389774D01*
X15234515Y-11389774D02*
X15244039Y-11351679D01*
X15244039Y-11351679D02*
X15253563Y-11332631D01*
X15253563Y-11332631D02*
X15263086Y-11323108D01*
X15263086Y-11323108D02*
X15282134Y-11313584D01*
X15434515Y-11494536D02*
X15444039Y-11504060D01*
X15444039Y-11504060D02*
X15434515Y-11513584D01*
X15434515Y-11513584D02*
X15424991Y-11504060D01*
X15424991Y-11504060D02*
X15434515Y-11494536D01*
X15434515Y-11494536D02*
X15434515Y-11513584D01*
X15567848Y-11313584D02*
X15586896Y-11313584D01*
X15586896Y-11313584D02*
X15605944Y-11323108D01*
X15605944Y-11323108D02*
X15615467Y-11332631D01*
X15615467Y-11332631D02*
X15624991Y-11351679D01*
X15624991Y-11351679D02*
X15634515Y-11389774D01*
X15634515Y-11389774D02*
X15634515Y-11437393D01*
X15634515Y-11437393D02*
X15624991Y-11475488D01*
X15624991Y-11475488D02*
X15615467Y-11494536D01*
X15615467Y-11494536D02*
X15605944Y-11504060D01*
X15605944Y-11504060D02*
X15586896Y-11513584D01*
X15586896Y-11513584D02*
X15567848Y-11513584D01*
X15567848Y-11513584D02*
X15548801Y-11504060D01*
X15548801Y-11504060D02*
X15539277Y-11494536D01*
X15539277Y-11494536D02*
X15529753Y-11475488D01*
X15529753Y-11475488D02*
X15520229Y-11437393D01*
X15520229Y-11437393D02*
X15520229Y-11389774D01*
X15520229Y-11389774D02*
X15529753Y-11351679D01*
X15529753Y-11351679D02*
X15539277Y-11332631D01*
X15539277Y-11332631D02*
X15548801Y-11323108D01*
X15548801Y-11323108D02*
X15567848Y-11313584D01*
X15710706Y-11332631D02*
X15720229Y-11323108D01*
X15720229Y-11323108D02*
X15739277Y-11313584D01*
X15739277Y-11313584D02*
X15786896Y-11313584D01*
X15786896Y-11313584D02*
X15805944Y-11323108D01*
X15805944Y-11323108D02*
X15815467Y-11332631D01*
X15815467Y-11332631D02*
X15824991Y-11351679D01*
X15824991Y-11351679D02*
X15824991Y-11370727D01*
X15824991Y-11370727D02*
X15815467Y-11399298D01*
X15815467Y-11399298D02*
X15701182Y-11513584D01*
X15701182Y-11513584D02*
X15824991Y-11513584D01*
X15891658Y-11313584D02*
X16024991Y-11313584D01*
X16024991Y-11313584D02*
X15939277Y-11513584D01*
X16186896Y-11313584D02*
X16148801Y-11313584D01*
X16148801Y-11313584D02*
X16129753Y-11323108D01*
X16129753Y-11323108D02*
X16120229Y-11332631D01*
X16120229Y-11332631D02*
X16101182Y-11361203D01*
X16101182Y-11361203D02*
X16091658Y-11399298D01*
X16091658Y-11399298D02*
X16091658Y-11475488D01*
X16091658Y-11475488D02*
X16101182Y-11494536D01*
X16101182Y-11494536D02*
X16110706Y-11504060D01*
X16110706Y-11504060D02*
X16129753Y-11513584D01*
X16129753Y-11513584D02*
X16167848Y-11513584D01*
X16167848Y-11513584D02*
X16186896Y-11504060D01*
X16186896Y-11504060D02*
X16196420Y-11494536D01*
X16196420Y-11494536D02*
X16205944Y-11475488D01*
X16205944Y-11475488D02*
X16205944Y-11427869D01*
X16205944Y-11427869D02*
X16196420Y-11408822D01*
X16196420Y-11408822D02*
X16186896Y-11399298D01*
X16186896Y-11399298D02*
X16167848Y-11389774D01*
X16167848Y-11389774D02*
X16129753Y-11389774D01*
X16129753Y-11389774D02*
X16110706Y-11399298D01*
X16110706Y-11399298D02*
X16101182Y-11408822D01*
X16101182Y-11408822D02*
X16091658Y-11427869D01*
X16282134Y-11313584D02*
X16282134Y-11351679D01*
X16358325Y-11313584D02*
X16358325Y-11351679D01*
X16653563Y-11589774D02*
X16644039Y-11580250D01*
X16644039Y-11580250D02*
X16624991Y-11551679D01*
X16624991Y-11551679D02*
X16615468Y-11532631D01*
X16615468Y-11532631D02*
X16605944Y-11504060D01*
X16605944Y-11504060D02*
X16596420Y-11456441D01*
X16596420Y-11456441D02*
X16596420Y-11418346D01*
X16596420Y-11418346D02*
X16605944Y-11370727D01*
X16605944Y-11370727D02*
X16615468Y-11342155D01*
X16615468Y-11342155D02*
X16624991Y-11323108D01*
X16624991Y-11323108D02*
X16644039Y-11294536D01*
X16644039Y-11294536D02*
X16653563Y-11285012D01*
X16815468Y-11313584D02*
X16777372Y-11313584D01*
X16777372Y-11313584D02*
X16758325Y-11323108D01*
X16758325Y-11323108D02*
X16748801Y-11332631D01*
X16748801Y-11332631D02*
X16729753Y-11361203D01*
X16729753Y-11361203D02*
X16720229Y-11399298D01*
X16720229Y-11399298D02*
X16720229Y-11475488D01*
X16720229Y-11475488D02*
X16729753Y-11494536D01*
X16729753Y-11494536D02*
X16739277Y-11504060D01*
X16739277Y-11504060D02*
X16758325Y-11513584D01*
X16758325Y-11513584D02*
X16796420Y-11513584D01*
X16796420Y-11513584D02*
X16815468Y-11504060D01*
X16815468Y-11504060D02*
X16824991Y-11494536D01*
X16824991Y-11494536D02*
X16834515Y-11475488D01*
X16834515Y-11475488D02*
X16834515Y-11427869D01*
X16834515Y-11427869D02*
X16824991Y-11408822D01*
X16824991Y-11408822D02*
X16815468Y-11399298D01*
X16815468Y-11399298D02*
X16796420Y-11389774D01*
X16796420Y-11389774D02*
X16758325Y-11389774D01*
X16758325Y-11389774D02*
X16739277Y-11399298D01*
X16739277Y-11399298D02*
X16729753Y-11408822D01*
X16729753Y-11408822D02*
X16720229Y-11427869D01*
X17072611Y-11513584D02*
X17072611Y-11313584D01*
X17158325Y-11513584D02*
X17158325Y-11408822D01*
X17158325Y-11408822D02*
X17148801Y-11389774D01*
X17148801Y-11389774D02*
X17129753Y-11380250D01*
X17129753Y-11380250D02*
X17101182Y-11380250D01*
X17101182Y-11380250D02*
X17082134Y-11389774D01*
X17082134Y-11389774D02*
X17072611Y-11399298D01*
X17282134Y-11513584D02*
X17263087Y-11504060D01*
X17263087Y-11504060D02*
X17253563Y-11494536D01*
X17253563Y-11494536D02*
X17244039Y-11475488D01*
X17244039Y-11475488D02*
X17244039Y-11418346D01*
X17244039Y-11418346D02*
X17253563Y-11399298D01*
X17253563Y-11399298D02*
X17263087Y-11389774D01*
X17263087Y-11389774D02*
X17282134Y-11380250D01*
X17282134Y-11380250D02*
X17310706Y-11380250D01*
X17310706Y-11380250D02*
X17329753Y-11389774D01*
X17329753Y-11389774D02*
X17339277Y-11399298D01*
X17339277Y-11399298D02*
X17348801Y-11418346D01*
X17348801Y-11418346D02*
X17348801Y-11475488D01*
X17348801Y-11475488D02*
X17339277Y-11494536D01*
X17339277Y-11494536D02*
X17329753Y-11504060D01*
X17329753Y-11504060D02*
X17310706Y-11513584D01*
X17310706Y-11513584D02*
X17282134Y-11513584D01*
X17463087Y-11513584D02*
X17444039Y-11504060D01*
X17444039Y-11504060D02*
X17434515Y-11485012D01*
X17434515Y-11485012D02*
X17434515Y-11313584D01*
X17615468Y-11504060D02*
X17596420Y-11513584D01*
X17596420Y-11513584D02*
X17558325Y-11513584D01*
X17558325Y-11513584D02*
X17539277Y-11504060D01*
X17539277Y-11504060D02*
X17529753Y-11485012D01*
X17529753Y-11485012D02*
X17529753Y-11408822D01*
X17529753Y-11408822D02*
X17539277Y-11389774D01*
X17539277Y-11389774D02*
X17558325Y-11380250D01*
X17558325Y-11380250D02*
X17596420Y-11380250D01*
X17596420Y-11380250D02*
X17615468Y-11389774D01*
X17615468Y-11389774D02*
X17624992Y-11408822D01*
X17624992Y-11408822D02*
X17624992Y-11427869D01*
X17624992Y-11427869D02*
X17529753Y-11446917D01*
X17701182Y-11504060D02*
X17720230Y-11513584D01*
X17720230Y-11513584D02*
X17758325Y-11513584D01*
X17758325Y-11513584D02*
X17777373Y-11504060D01*
X17777373Y-11504060D02*
X17786896Y-11485012D01*
X17786896Y-11485012D02*
X17786896Y-11475488D01*
X17786896Y-11475488D02*
X17777373Y-11456441D01*
X17777373Y-11456441D02*
X17758325Y-11446917D01*
X17758325Y-11446917D02*
X17729753Y-11446917D01*
X17729753Y-11446917D02*
X17710706Y-11437393D01*
X17710706Y-11437393D02*
X17701182Y-11418346D01*
X17701182Y-11418346D02*
X17701182Y-11408822D01*
X17701182Y-11408822D02*
X17710706Y-11389774D01*
X17710706Y-11389774D02*
X17729753Y-11380250D01*
X17729753Y-11380250D02*
X17758325Y-11380250D01*
X17758325Y-11380250D02*
X17777373Y-11389774D01*
X17853563Y-11589774D02*
X17863087Y-11580250D01*
X17863087Y-11580250D02*
X17882134Y-11551679D01*
X17882134Y-11551679D02*
X17891658Y-11532631D01*
X17891658Y-11532631D02*
X17901182Y-11504060D01*
X17901182Y-11504060D02*
X17910706Y-11456441D01*
X17910706Y-11456441D02*
X17910706Y-11418346D01*
X17910706Y-11418346D02*
X17901182Y-11370727D01*
X17901182Y-11370727D02*
X17891658Y-11342155D01*
X17891658Y-11342155D02*
X17882134Y-11323108D01*
X17882134Y-11323108D02*
X17863087Y-11294536D01*
X17863087Y-11294536D02*
X17853563Y-11285012D01*
D12*
X13038500Y-11646100D02*
X13038500Y-11726100D01*
X12998500Y-11686100D02*
X13078500Y-11686100D01*
D11*
X13377372Y-11577584D02*
X13396420Y-11577584D01*
X13396420Y-11577584D02*
X13415467Y-11587108D01*
X13415467Y-11587108D02*
X13424991Y-11596631D01*
X13424991Y-11596631D02*
X13434515Y-11615679D01*
X13434515Y-11615679D02*
X13444039Y-11653774D01*
X13444039Y-11653774D02*
X13444039Y-11701393D01*
X13444039Y-11701393D02*
X13434515Y-11739488D01*
X13434515Y-11739488D02*
X13424991Y-11758536D01*
X13424991Y-11758536D02*
X13415467Y-11768060D01*
X13415467Y-11768060D02*
X13396420Y-11777584D01*
X13396420Y-11777584D02*
X13377372Y-11777584D01*
X13377372Y-11777584D02*
X13358324Y-11768060D01*
X13358324Y-11768060D02*
X13348801Y-11758536D01*
X13348801Y-11758536D02*
X13339277Y-11739488D01*
X13339277Y-11739488D02*
X13329753Y-11701393D01*
X13329753Y-11701393D02*
X13329753Y-11653774D01*
X13329753Y-11653774D02*
X13339277Y-11615679D01*
X13339277Y-11615679D02*
X13348801Y-11596631D01*
X13348801Y-11596631D02*
X13358324Y-11587108D01*
X13358324Y-11587108D02*
X13377372Y-11577584D01*
X13529753Y-11758536D02*
X13539277Y-11768060D01*
X13539277Y-11768060D02*
X13529753Y-11777584D01*
X13529753Y-11777584D02*
X13520229Y-11768060D01*
X13520229Y-11768060D02*
X13529753Y-11758536D01*
X13529753Y-11758536D02*
X13529753Y-11777584D01*
X13653562Y-11663298D02*
X13634515Y-11653774D01*
X13634515Y-11653774D02*
X13624991Y-11644250D01*
X13624991Y-11644250D02*
X13615467Y-11625203D01*
X13615467Y-11625203D02*
X13615467Y-11615679D01*
X13615467Y-11615679D02*
X13624991Y-11596631D01*
X13624991Y-11596631D02*
X13634515Y-11587108D01*
X13634515Y-11587108D02*
X13653562Y-11577584D01*
X13653562Y-11577584D02*
X13691658Y-11577584D01*
X13691658Y-11577584D02*
X13710705Y-11587108D01*
X13710705Y-11587108D02*
X13720229Y-11596631D01*
X13720229Y-11596631D02*
X13729753Y-11615679D01*
X13729753Y-11615679D02*
X13729753Y-11625203D01*
X13729753Y-11625203D02*
X13720229Y-11644250D01*
X13720229Y-11644250D02*
X13710705Y-11653774D01*
X13710705Y-11653774D02*
X13691658Y-11663298D01*
X13691658Y-11663298D02*
X13653562Y-11663298D01*
X13653562Y-11663298D02*
X13634515Y-11672822D01*
X13634515Y-11672822D02*
X13624991Y-11682346D01*
X13624991Y-11682346D02*
X13615467Y-11701393D01*
X13615467Y-11701393D02*
X13615467Y-11739488D01*
X13615467Y-11739488D02*
X13624991Y-11758536D01*
X13624991Y-11758536D02*
X13634515Y-11768060D01*
X13634515Y-11768060D02*
X13653562Y-11777584D01*
X13653562Y-11777584D02*
X13691658Y-11777584D01*
X13691658Y-11777584D02*
X13710705Y-11768060D01*
X13710705Y-11768060D02*
X13720229Y-11758536D01*
X13720229Y-11758536D02*
X13729753Y-11739488D01*
X13729753Y-11739488D02*
X13729753Y-11701393D01*
X13729753Y-11701393D02*
X13720229Y-11682346D01*
X13720229Y-11682346D02*
X13710705Y-11672822D01*
X13710705Y-11672822D02*
X13691658Y-11663298D01*
X13853562Y-11577584D02*
X13872610Y-11577584D01*
X13872610Y-11577584D02*
X13891658Y-11587108D01*
X13891658Y-11587108D02*
X13901182Y-11596631D01*
X13901182Y-11596631D02*
X13910705Y-11615679D01*
X13910705Y-11615679D02*
X13920229Y-11653774D01*
X13920229Y-11653774D02*
X13920229Y-11701393D01*
X13920229Y-11701393D02*
X13910705Y-11739488D01*
X13910705Y-11739488D02*
X13901182Y-11758536D01*
X13901182Y-11758536D02*
X13891658Y-11768060D01*
X13891658Y-11768060D02*
X13872610Y-11777584D01*
X13872610Y-11777584D02*
X13853562Y-11777584D01*
X13853562Y-11777584D02*
X13834515Y-11768060D01*
X13834515Y-11768060D02*
X13824991Y-11758536D01*
X13824991Y-11758536D02*
X13815467Y-11739488D01*
X13815467Y-11739488D02*
X13805943Y-11701393D01*
X13805943Y-11701393D02*
X13805943Y-11653774D01*
X13805943Y-11653774D02*
X13815467Y-11615679D01*
X13815467Y-11615679D02*
X13824991Y-11596631D01*
X13824991Y-11596631D02*
X13834515Y-11587108D01*
X13834515Y-11587108D02*
X13853562Y-11577584D01*
X14044039Y-11577584D02*
X14063086Y-11577584D01*
X14063086Y-11577584D02*
X14082134Y-11587108D01*
X14082134Y-11587108D02*
X14091658Y-11596631D01*
X14091658Y-11596631D02*
X14101182Y-11615679D01*
X14101182Y-11615679D02*
X14110705Y-11653774D01*
X14110705Y-11653774D02*
X14110705Y-11701393D01*
X14110705Y-11701393D02*
X14101182Y-11739488D01*
X14101182Y-11739488D02*
X14091658Y-11758536D01*
X14091658Y-11758536D02*
X14082134Y-11768060D01*
X14082134Y-11768060D02*
X14063086Y-11777584D01*
X14063086Y-11777584D02*
X14044039Y-11777584D01*
X14044039Y-11777584D02*
X14024991Y-11768060D01*
X14024991Y-11768060D02*
X14015467Y-11758536D01*
X14015467Y-11758536D02*
X14005943Y-11739488D01*
X14005943Y-11739488D02*
X13996420Y-11701393D01*
X13996420Y-11701393D02*
X13996420Y-11653774D01*
X13996420Y-11653774D02*
X14005943Y-11615679D01*
X14005943Y-11615679D02*
X14015467Y-11596631D01*
X14015467Y-11596631D02*
X14024991Y-11587108D01*
X14024991Y-11587108D02*
X14044039Y-11577584D01*
X14196420Y-11777584D02*
X14196420Y-11644250D01*
X14196420Y-11663298D02*
X14205943Y-11653774D01*
X14205943Y-11653774D02*
X14224991Y-11644250D01*
X14224991Y-11644250D02*
X14253563Y-11644250D01*
X14253563Y-11644250D02*
X14272610Y-11653774D01*
X14272610Y-11653774D02*
X14282134Y-11672822D01*
X14282134Y-11672822D02*
X14282134Y-11777584D01*
X14282134Y-11672822D02*
X14291658Y-11653774D01*
X14291658Y-11653774D02*
X14310705Y-11644250D01*
X14310705Y-11644250D02*
X14339277Y-11644250D01*
X14339277Y-11644250D02*
X14358324Y-11653774D01*
X14358324Y-11653774D02*
X14367848Y-11672822D01*
X14367848Y-11672822D02*
X14367848Y-11777584D01*
X14463086Y-11777584D02*
X14463086Y-11644250D01*
X14463086Y-11663298D02*
X14472610Y-11653774D01*
X14472610Y-11653774D02*
X14491658Y-11644250D01*
X14491658Y-11644250D02*
X14520229Y-11644250D01*
X14520229Y-11644250D02*
X14539277Y-11653774D01*
X14539277Y-11653774D02*
X14548801Y-11672822D01*
X14548801Y-11672822D02*
X14548801Y-11777584D01*
X14548801Y-11672822D02*
X14558324Y-11653774D01*
X14558324Y-11653774D02*
X14577372Y-11644250D01*
X14577372Y-11644250D02*
X14605943Y-11644250D01*
X14605943Y-11644250D02*
X14624991Y-11653774D01*
X14624991Y-11653774D02*
X14634515Y-11672822D01*
X14634515Y-11672822D02*
X14634515Y-11777584D01*
X15024991Y-11568060D02*
X14853563Y-11825203D01*
X15282134Y-11577584D02*
X15301182Y-11577584D01*
X15301182Y-11577584D02*
X15320229Y-11587108D01*
X15320229Y-11587108D02*
X15329753Y-11596631D01*
X15329753Y-11596631D02*
X15339277Y-11615679D01*
X15339277Y-11615679D02*
X15348801Y-11653774D01*
X15348801Y-11653774D02*
X15348801Y-11701393D01*
X15348801Y-11701393D02*
X15339277Y-11739488D01*
X15339277Y-11739488D02*
X15329753Y-11758536D01*
X15329753Y-11758536D02*
X15320229Y-11768060D01*
X15320229Y-11768060D02*
X15301182Y-11777584D01*
X15301182Y-11777584D02*
X15282134Y-11777584D01*
X15282134Y-11777584D02*
X15263086Y-11768060D01*
X15263086Y-11768060D02*
X15253563Y-11758536D01*
X15253563Y-11758536D02*
X15244039Y-11739488D01*
X15244039Y-11739488D02*
X15234515Y-11701393D01*
X15234515Y-11701393D02*
X15234515Y-11653774D01*
X15234515Y-11653774D02*
X15244039Y-11615679D01*
X15244039Y-11615679D02*
X15253563Y-11596631D01*
X15253563Y-11596631D02*
X15263086Y-11587108D01*
X15263086Y-11587108D02*
X15282134Y-11577584D01*
X15434515Y-11758536D02*
X15444039Y-11768060D01*
X15444039Y-11768060D02*
X15434515Y-11777584D01*
X15434515Y-11777584D02*
X15424991Y-11768060D01*
X15424991Y-11768060D02*
X15434515Y-11758536D01*
X15434515Y-11758536D02*
X15434515Y-11777584D01*
X15567848Y-11577584D02*
X15586896Y-11577584D01*
X15586896Y-11577584D02*
X15605944Y-11587108D01*
X15605944Y-11587108D02*
X15615467Y-11596631D01*
X15615467Y-11596631D02*
X15624991Y-11615679D01*
X15624991Y-11615679D02*
X15634515Y-11653774D01*
X15634515Y-11653774D02*
X15634515Y-11701393D01*
X15634515Y-11701393D02*
X15624991Y-11739488D01*
X15624991Y-11739488D02*
X15615467Y-11758536D01*
X15615467Y-11758536D02*
X15605944Y-11768060D01*
X15605944Y-11768060D02*
X15586896Y-11777584D01*
X15586896Y-11777584D02*
X15567848Y-11777584D01*
X15567848Y-11777584D02*
X15548801Y-11768060D01*
X15548801Y-11768060D02*
X15539277Y-11758536D01*
X15539277Y-11758536D02*
X15529753Y-11739488D01*
X15529753Y-11739488D02*
X15520229Y-11701393D01*
X15520229Y-11701393D02*
X15520229Y-11653774D01*
X15520229Y-11653774D02*
X15529753Y-11615679D01*
X15529753Y-11615679D02*
X15539277Y-11596631D01*
X15539277Y-11596631D02*
X15548801Y-11587108D01*
X15548801Y-11587108D02*
X15567848Y-11577584D01*
X15701182Y-11577584D02*
X15824991Y-11577584D01*
X15824991Y-11577584D02*
X15758325Y-11653774D01*
X15758325Y-11653774D02*
X15786896Y-11653774D01*
X15786896Y-11653774D02*
X15805944Y-11663298D01*
X15805944Y-11663298D02*
X15815467Y-11672822D01*
X15815467Y-11672822D02*
X15824991Y-11691869D01*
X15824991Y-11691869D02*
X15824991Y-11739488D01*
X15824991Y-11739488D02*
X15815467Y-11758536D01*
X15815467Y-11758536D02*
X15805944Y-11768060D01*
X15805944Y-11768060D02*
X15786896Y-11777584D01*
X15786896Y-11777584D02*
X15729753Y-11777584D01*
X15729753Y-11777584D02*
X15710706Y-11768060D01*
X15710706Y-11768060D02*
X15701182Y-11758536D01*
X16015467Y-11777584D02*
X15901182Y-11777584D01*
X15958325Y-11777584D02*
X15958325Y-11577584D01*
X15958325Y-11577584D02*
X15939277Y-11606155D01*
X15939277Y-11606155D02*
X15920229Y-11625203D01*
X15920229Y-11625203D02*
X15901182Y-11634727D01*
X16196420Y-11577584D02*
X16101182Y-11577584D01*
X16101182Y-11577584D02*
X16091658Y-11672822D01*
X16091658Y-11672822D02*
X16101182Y-11663298D01*
X16101182Y-11663298D02*
X16120229Y-11653774D01*
X16120229Y-11653774D02*
X16167848Y-11653774D01*
X16167848Y-11653774D02*
X16186896Y-11663298D01*
X16186896Y-11663298D02*
X16196420Y-11672822D01*
X16196420Y-11672822D02*
X16205944Y-11691869D01*
X16205944Y-11691869D02*
X16205944Y-11739488D01*
X16205944Y-11739488D02*
X16196420Y-11758536D01*
X16196420Y-11758536D02*
X16186896Y-11768060D01*
X16186896Y-11768060D02*
X16167848Y-11777584D01*
X16167848Y-11777584D02*
X16120229Y-11777584D01*
X16120229Y-11777584D02*
X16101182Y-11768060D01*
X16101182Y-11768060D02*
X16091658Y-11758536D01*
X16282134Y-11577584D02*
X16282134Y-11615679D01*
X16358325Y-11577584D02*
X16358325Y-11615679D01*
X16653563Y-11853774D02*
X16644039Y-11844250D01*
X16644039Y-11844250D02*
X16624991Y-11815679D01*
X16624991Y-11815679D02*
X16615468Y-11796631D01*
X16615468Y-11796631D02*
X16605944Y-11768060D01*
X16605944Y-11768060D02*
X16596420Y-11720441D01*
X16596420Y-11720441D02*
X16596420Y-11682346D01*
X16596420Y-11682346D02*
X16605944Y-11634727D01*
X16605944Y-11634727D02*
X16615468Y-11606155D01*
X16615468Y-11606155D02*
X16624991Y-11587108D01*
X16624991Y-11587108D02*
X16644039Y-11558536D01*
X16644039Y-11558536D02*
X16653563Y-11549012D01*
X16815468Y-11577584D02*
X16777372Y-11577584D01*
X16777372Y-11577584D02*
X16758325Y-11587108D01*
X16758325Y-11587108D02*
X16748801Y-11596631D01*
X16748801Y-11596631D02*
X16729753Y-11625203D01*
X16729753Y-11625203D02*
X16720229Y-11663298D01*
X16720229Y-11663298D02*
X16720229Y-11739488D01*
X16720229Y-11739488D02*
X16729753Y-11758536D01*
X16729753Y-11758536D02*
X16739277Y-11768060D01*
X16739277Y-11768060D02*
X16758325Y-11777584D01*
X16758325Y-11777584D02*
X16796420Y-11777584D01*
X16796420Y-11777584D02*
X16815468Y-11768060D01*
X16815468Y-11768060D02*
X16824991Y-11758536D01*
X16824991Y-11758536D02*
X16834515Y-11739488D01*
X16834515Y-11739488D02*
X16834515Y-11691869D01*
X16834515Y-11691869D02*
X16824991Y-11672822D01*
X16824991Y-11672822D02*
X16815468Y-11663298D01*
X16815468Y-11663298D02*
X16796420Y-11653774D01*
X16796420Y-11653774D02*
X16758325Y-11653774D01*
X16758325Y-11653774D02*
X16739277Y-11663298D01*
X16739277Y-11663298D02*
X16729753Y-11672822D01*
X16729753Y-11672822D02*
X16720229Y-11691869D01*
X17072611Y-11777584D02*
X17072611Y-11577584D01*
X17158325Y-11777584D02*
X17158325Y-11672822D01*
X17158325Y-11672822D02*
X17148801Y-11653774D01*
X17148801Y-11653774D02*
X17129753Y-11644250D01*
X17129753Y-11644250D02*
X17101182Y-11644250D01*
X17101182Y-11644250D02*
X17082134Y-11653774D01*
X17082134Y-11653774D02*
X17072611Y-11663298D01*
X17282134Y-11777584D02*
X17263087Y-11768060D01*
X17263087Y-11768060D02*
X17253563Y-11758536D01*
X17253563Y-11758536D02*
X17244039Y-11739488D01*
X17244039Y-11739488D02*
X17244039Y-11682346D01*
X17244039Y-11682346D02*
X17253563Y-11663298D01*
X17253563Y-11663298D02*
X17263087Y-11653774D01*
X17263087Y-11653774D02*
X17282134Y-11644250D01*
X17282134Y-11644250D02*
X17310706Y-11644250D01*
X17310706Y-11644250D02*
X17329753Y-11653774D01*
X17329753Y-11653774D02*
X17339277Y-11663298D01*
X17339277Y-11663298D02*
X17348801Y-11682346D01*
X17348801Y-11682346D02*
X17348801Y-11739488D01*
X17348801Y-11739488D02*
X17339277Y-11758536D01*
X17339277Y-11758536D02*
X17329753Y-11768060D01*
X17329753Y-11768060D02*
X17310706Y-11777584D01*
X17310706Y-11777584D02*
X17282134Y-11777584D01*
X17463087Y-11777584D02*
X17444039Y-11768060D01*
X17444039Y-11768060D02*
X17434515Y-11749012D01*
X17434515Y-11749012D02*
X17434515Y-11577584D01*
X17615468Y-11768060D02*
X17596420Y-11777584D01*
X17596420Y-11777584D02*
X17558325Y-11777584D01*
X17558325Y-11777584D02*
X17539277Y-11768060D01*
X17539277Y-11768060D02*
X17529753Y-11749012D01*
X17529753Y-11749012D02*
X17529753Y-11672822D01*
X17529753Y-11672822D02*
X17539277Y-11653774D01*
X17539277Y-11653774D02*
X17558325Y-11644250D01*
X17558325Y-11644250D02*
X17596420Y-11644250D01*
X17596420Y-11644250D02*
X17615468Y-11653774D01*
X17615468Y-11653774D02*
X17624992Y-11672822D01*
X17624992Y-11672822D02*
X17624992Y-11691869D01*
X17624992Y-11691869D02*
X17529753Y-11710917D01*
X17701182Y-11768060D02*
X17720230Y-11777584D01*
X17720230Y-11777584D02*
X17758325Y-11777584D01*
X17758325Y-11777584D02*
X17777373Y-11768060D01*
X17777373Y-11768060D02*
X17786896Y-11749012D01*
X17786896Y-11749012D02*
X17786896Y-11739488D01*
X17786896Y-11739488D02*
X17777373Y-11720441D01*
X17777373Y-11720441D02*
X17758325Y-11710917D01*
X17758325Y-11710917D02*
X17729753Y-11710917D01*
X17729753Y-11710917D02*
X17710706Y-11701393D01*
X17710706Y-11701393D02*
X17701182Y-11682346D01*
X17701182Y-11682346D02*
X17701182Y-11672822D01*
X17701182Y-11672822D02*
X17710706Y-11653774D01*
X17710706Y-11653774D02*
X17729753Y-11644250D01*
X17729753Y-11644250D02*
X17758325Y-11644250D01*
X17758325Y-11644250D02*
X17777373Y-11653774D01*
X17853563Y-11853774D02*
X17863087Y-11844250D01*
X17863087Y-11844250D02*
X17882134Y-11815679D01*
X17882134Y-11815679D02*
X17891658Y-11796631D01*
X17891658Y-11796631D02*
X17901182Y-11768060D01*
X17901182Y-11768060D02*
X17910706Y-11720441D01*
X17910706Y-11720441D02*
X17910706Y-11682346D01*
X17910706Y-11682346D02*
X17901182Y-11634727D01*
X17901182Y-11634727D02*
X17891658Y-11606155D01*
X17891658Y-11606155D02*
X17882134Y-11587108D01*
X17882134Y-11587108D02*
X17863087Y-11558536D01*
X17863087Y-11558536D02*
X17853563Y-11549012D01*
D12*
X13065320Y-11981920D02*
X13065320Y-11918280D01*
X13001680Y-11918280D01*
X13001680Y-11981920D01*
X13065320Y-11981920D01*
D11*
X13377372Y-11841584D02*
X13396420Y-11841584D01*
X13396420Y-11841584D02*
X13415467Y-11851108D01*
X13415467Y-11851108D02*
X13424991Y-11860631D01*
X13424991Y-11860631D02*
X13434515Y-11879679D01*
X13434515Y-11879679D02*
X13444039Y-11917774D01*
X13444039Y-11917774D02*
X13444039Y-11965393D01*
X13444039Y-11965393D02*
X13434515Y-12003488D01*
X13434515Y-12003488D02*
X13424991Y-12022536D01*
X13424991Y-12022536D02*
X13415467Y-12032060D01*
X13415467Y-12032060D02*
X13396420Y-12041584D01*
X13396420Y-12041584D02*
X13377372Y-12041584D01*
X13377372Y-12041584D02*
X13358324Y-12032060D01*
X13358324Y-12032060D02*
X13348801Y-12022536D01*
X13348801Y-12022536D02*
X13339277Y-12003488D01*
X13339277Y-12003488D02*
X13329753Y-11965393D01*
X13329753Y-11965393D02*
X13329753Y-11917774D01*
X13329753Y-11917774D02*
X13339277Y-11879679D01*
X13339277Y-11879679D02*
X13348801Y-11860631D01*
X13348801Y-11860631D02*
X13358324Y-11851108D01*
X13358324Y-11851108D02*
X13377372Y-11841584D01*
X13529753Y-12022536D02*
X13539277Y-12032060D01*
X13539277Y-12032060D02*
X13529753Y-12041584D01*
X13529753Y-12041584D02*
X13520229Y-12032060D01*
X13520229Y-12032060D02*
X13529753Y-12022536D01*
X13529753Y-12022536D02*
X13529753Y-12041584D01*
X13634515Y-12041584D02*
X13672610Y-12041584D01*
X13672610Y-12041584D02*
X13691658Y-12032060D01*
X13691658Y-12032060D02*
X13701182Y-12022536D01*
X13701182Y-12022536D02*
X13720229Y-11993965D01*
X13720229Y-11993965D02*
X13729753Y-11955869D01*
X13729753Y-11955869D02*
X13729753Y-11879679D01*
X13729753Y-11879679D02*
X13720229Y-11860631D01*
X13720229Y-11860631D02*
X13710705Y-11851108D01*
X13710705Y-11851108D02*
X13691658Y-11841584D01*
X13691658Y-11841584D02*
X13653562Y-11841584D01*
X13653562Y-11841584D02*
X13634515Y-11851108D01*
X13634515Y-11851108D02*
X13624991Y-11860631D01*
X13624991Y-11860631D02*
X13615467Y-11879679D01*
X13615467Y-11879679D02*
X13615467Y-11927298D01*
X13615467Y-11927298D02*
X13624991Y-11946346D01*
X13624991Y-11946346D02*
X13634515Y-11955869D01*
X13634515Y-11955869D02*
X13653562Y-11965393D01*
X13653562Y-11965393D02*
X13691658Y-11965393D01*
X13691658Y-11965393D02*
X13710705Y-11955869D01*
X13710705Y-11955869D02*
X13720229Y-11946346D01*
X13720229Y-11946346D02*
X13729753Y-11927298D01*
X13853562Y-11841584D02*
X13872610Y-11841584D01*
X13872610Y-11841584D02*
X13891658Y-11851108D01*
X13891658Y-11851108D02*
X13901182Y-11860631D01*
X13901182Y-11860631D02*
X13910705Y-11879679D01*
X13910705Y-11879679D02*
X13920229Y-11917774D01*
X13920229Y-11917774D02*
X13920229Y-11965393D01*
X13920229Y-11965393D02*
X13910705Y-12003488D01*
X13910705Y-12003488D02*
X13901182Y-12022536D01*
X13901182Y-12022536D02*
X13891658Y-12032060D01*
X13891658Y-12032060D02*
X13872610Y-12041584D01*
X13872610Y-12041584D02*
X13853562Y-12041584D01*
X13853562Y-12041584D02*
X13834515Y-12032060D01*
X13834515Y-12032060D02*
X13824991Y-12022536D01*
X13824991Y-12022536D02*
X13815467Y-12003488D01*
X13815467Y-12003488D02*
X13805943Y-11965393D01*
X13805943Y-11965393D02*
X13805943Y-11917774D01*
X13805943Y-11917774D02*
X13815467Y-11879679D01*
X13815467Y-11879679D02*
X13824991Y-11860631D01*
X13824991Y-11860631D02*
X13834515Y-11851108D01*
X13834515Y-11851108D02*
X13853562Y-11841584D01*
X14044039Y-11841584D02*
X14063086Y-11841584D01*
X14063086Y-11841584D02*
X14082134Y-11851108D01*
X14082134Y-11851108D02*
X14091658Y-11860631D01*
X14091658Y-11860631D02*
X14101182Y-11879679D01*
X14101182Y-11879679D02*
X14110705Y-11917774D01*
X14110705Y-11917774D02*
X14110705Y-11965393D01*
X14110705Y-11965393D02*
X14101182Y-12003488D01*
X14101182Y-12003488D02*
X14091658Y-12022536D01*
X14091658Y-12022536D02*
X14082134Y-12032060D01*
X14082134Y-12032060D02*
X14063086Y-12041584D01*
X14063086Y-12041584D02*
X14044039Y-12041584D01*
X14044039Y-12041584D02*
X14024991Y-12032060D01*
X14024991Y-12032060D02*
X14015467Y-12022536D01*
X14015467Y-12022536D02*
X14005943Y-12003488D01*
X14005943Y-12003488D02*
X13996420Y-11965393D01*
X13996420Y-11965393D02*
X13996420Y-11917774D01*
X13996420Y-11917774D02*
X14005943Y-11879679D01*
X14005943Y-11879679D02*
X14015467Y-11860631D01*
X14015467Y-11860631D02*
X14024991Y-11851108D01*
X14024991Y-11851108D02*
X14044039Y-11841584D01*
X14196420Y-12041584D02*
X14196420Y-11908250D01*
X14196420Y-11927298D02*
X14205943Y-11917774D01*
X14205943Y-11917774D02*
X14224991Y-11908250D01*
X14224991Y-11908250D02*
X14253563Y-11908250D01*
X14253563Y-11908250D02*
X14272610Y-11917774D01*
X14272610Y-11917774D02*
X14282134Y-11936822D01*
X14282134Y-11936822D02*
X14282134Y-12041584D01*
X14282134Y-11936822D02*
X14291658Y-11917774D01*
X14291658Y-11917774D02*
X14310705Y-11908250D01*
X14310705Y-11908250D02*
X14339277Y-11908250D01*
X14339277Y-11908250D02*
X14358324Y-11917774D01*
X14358324Y-11917774D02*
X14367848Y-11936822D01*
X14367848Y-11936822D02*
X14367848Y-12041584D01*
X14463086Y-12041584D02*
X14463086Y-11908250D01*
X14463086Y-11927298D02*
X14472610Y-11917774D01*
X14472610Y-11917774D02*
X14491658Y-11908250D01*
X14491658Y-11908250D02*
X14520229Y-11908250D01*
X14520229Y-11908250D02*
X14539277Y-11917774D01*
X14539277Y-11917774D02*
X14548801Y-11936822D01*
X14548801Y-11936822D02*
X14548801Y-12041584D01*
X14548801Y-11936822D02*
X14558324Y-11917774D01*
X14558324Y-11917774D02*
X14577372Y-11908250D01*
X14577372Y-11908250D02*
X14605943Y-11908250D01*
X14605943Y-11908250D02*
X14624991Y-11917774D01*
X14624991Y-11917774D02*
X14634515Y-11936822D01*
X14634515Y-11936822D02*
X14634515Y-12041584D01*
X15024991Y-11832060D02*
X14853563Y-12089203D01*
X15282134Y-11841584D02*
X15301182Y-11841584D01*
X15301182Y-11841584D02*
X15320229Y-11851108D01*
X15320229Y-11851108D02*
X15329753Y-11860631D01*
X15329753Y-11860631D02*
X15339277Y-11879679D01*
X15339277Y-11879679D02*
X15348801Y-11917774D01*
X15348801Y-11917774D02*
X15348801Y-11965393D01*
X15348801Y-11965393D02*
X15339277Y-12003488D01*
X15339277Y-12003488D02*
X15329753Y-12022536D01*
X15329753Y-12022536D02*
X15320229Y-12032060D01*
X15320229Y-12032060D02*
X15301182Y-12041584D01*
X15301182Y-12041584D02*
X15282134Y-12041584D01*
X15282134Y-12041584D02*
X15263086Y-12032060D01*
X15263086Y-12032060D02*
X15253563Y-12022536D01*
X15253563Y-12022536D02*
X15244039Y-12003488D01*
X15244039Y-12003488D02*
X15234515Y-11965393D01*
X15234515Y-11965393D02*
X15234515Y-11917774D01*
X15234515Y-11917774D02*
X15244039Y-11879679D01*
X15244039Y-11879679D02*
X15253563Y-11860631D01*
X15253563Y-11860631D02*
X15263086Y-11851108D01*
X15263086Y-11851108D02*
X15282134Y-11841584D01*
X15434515Y-12022536D02*
X15444039Y-12032060D01*
X15444039Y-12032060D02*
X15434515Y-12041584D01*
X15434515Y-12041584D02*
X15424991Y-12032060D01*
X15424991Y-12032060D02*
X15434515Y-12022536D01*
X15434515Y-12022536D02*
X15434515Y-12041584D01*
X15567848Y-11841584D02*
X15586896Y-11841584D01*
X15586896Y-11841584D02*
X15605944Y-11851108D01*
X15605944Y-11851108D02*
X15615467Y-11860631D01*
X15615467Y-11860631D02*
X15624991Y-11879679D01*
X15624991Y-11879679D02*
X15634515Y-11917774D01*
X15634515Y-11917774D02*
X15634515Y-11965393D01*
X15634515Y-11965393D02*
X15624991Y-12003488D01*
X15624991Y-12003488D02*
X15615467Y-12022536D01*
X15615467Y-12022536D02*
X15605944Y-12032060D01*
X15605944Y-12032060D02*
X15586896Y-12041584D01*
X15586896Y-12041584D02*
X15567848Y-12041584D01*
X15567848Y-12041584D02*
X15548801Y-12032060D01*
X15548801Y-12032060D02*
X15539277Y-12022536D01*
X15539277Y-12022536D02*
X15529753Y-12003488D01*
X15529753Y-12003488D02*
X15520229Y-11965393D01*
X15520229Y-11965393D02*
X15520229Y-11917774D01*
X15520229Y-11917774D02*
X15529753Y-11879679D01*
X15529753Y-11879679D02*
X15539277Y-11860631D01*
X15539277Y-11860631D02*
X15548801Y-11851108D01*
X15548801Y-11851108D02*
X15567848Y-11841584D01*
X15701182Y-11841584D02*
X15824991Y-11841584D01*
X15824991Y-11841584D02*
X15758325Y-11917774D01*
X15758325Y-11917774D02*
X15786896Y-11917774D01*
X15786896Y-11917774D02*
X15805944Y-11927298D01*
X15805944Y-11927298D02*
X15815467Y-11936822D01*
X15815467Y-11936822D02*
X15824991Y-11955869D01*
X15824991Y-11955869D02*
X15824991Y-12003488D01*
X15824991Y-12003488D02*
X15815467Y-12022536D01*
X15815467Y-12022536D02*
X15805944Y-12032060D01*
X15805944Y-12032060D02*
X15786896Y-12041584D01*
X15786896Y-12041584D02*
X15729753Y-12041584D01*
X15729753Y-12041584D02*
X15710706Y-12032060D01*
X15710706Y-12032060D02*
X15701182Y-12022536D01*
X16005944Y-11841584D02*
X15910706Y-11841584D01*
X15910706Y-11841584D02*
X15901182Y-11936822D01*
X15901182Y-11936822D02*
X15910706Y-11927298D01*
X15910706Y-11927298D02*
X15929753Y-11917774D01*
X15929753Y-11917774D02*
X15977372Y-11917774D01*
X15977372Y-11917774D02*
X15996420Y-11927298D01*
X15996420Y-11927298D02*
X16005944Y-11936822D01*
X16005944Y-11936822D02*
X16015467Y-11955869D01*
X16015467Y-11955869D02*
X16015467Y-12003488D01*
X16015467Y-12003488D02*
X16005944Y-12022536D01*
X16005944Y-12022536D02*
X15996420Y-12032060D01*
X15996420Y-12032060D02*
X15977372Y-12041584D01*
X15977372Y-12041584D02*
X15929753Y-12041584D01*
X15929753Y-12041584D02*
X15910706Y-12032060D01*
X15910706Y-12032060D02*
X15901182Y-12022536D01*
X16186896Y-11908250D02*
X16186896Y-12041584D01*
X16139277Y-11832060D02*
X16091658Y-11974917D01*
X16091658Y-11974917D02*
X16215467Y-11974917D01*
X16282134Y-11841584D02*
X16282134Y-11879679D01*
X16358325Y-11841584D02*
X16358325Y-11879679D01*
X16653563Y-12117774D02*
X16644039Y-12108250D01*
X16644039Y-12108250D02*
X16624991Y-12079679D01*
X16624991Y-12079679D02*
X16615468Y-12060631D01*
X16615468Y-12060631D02*
X16605944Y-12032060D01*
X16605944Y-12032060D02*
X16596420Y-11984441D01*
X16596420Y-11984441D02*
X16596420Y-11946346D01*
X16596420Y-11946346D02*
X16605944Y-11898727D01*
X16605944Y-11898727D02*
X16615468Y-11870155D01*
X16615468Y-11870155D02*
X16624991Y-11851108D01*
X16624991Y-11851108D02*
X16644039Y-11822536D01*
X16644039Y-11822536D02*
X16653563Y-11813012D01*
X16720229Y-11860631D02*
X16729753Y-11851108D01*
X16729753Y-11851108D02*
X16748801Y-11841584D01*
X16748801Y-11841584D02*
X16796420Y-11841584D01*
X16796420Y-11841584D02*
X16815468Y-11851108D01*
X16815468Y-11851108D02*
X16824991Y-11860631D01*
X16824991Y-11860631D02*
X16834515Y-11879679D01*
X16834515Y-11879679D02*
X16834515Y-11898727D01*
X16834515Y-11898727D02*
X16824991Y-11927298D01*
X16824991Y-11927298D02*
X16710706Y-12041584D01*
X16710706Y-12041584D02*
X16834515Y-12041584D01*
X17072611Y-12041584D02*
X17072611Y-11841584D01*
X17158325Y-12041584D02*
X17158325Y-11936822D01*
X17158325Y-11936822D02*
X17148801Y-11917774D01*
X17148801Y-11917774D02*
X17129753Y-11908250D01*
X17129753Y-11908250D02*
X17101182Y-11908250D01*
X17101182Y-11908250D02*
X17082134Y-11917774D01*
X17082134Y-11917774D02*
X17072611Y-11927298D01*
X17282134Y-12041584D02*
X17263087Y-12032060D01*
X17263087Y-12032060D02*
X17253563Y-12022536D01*
X17253563Y-12022536D02*
X17244039Y-12003488D01*
X17244039Y-12003488D02*
X17244039Y-11946346D01*
X17244039Y-11946346D02*
X17253563Y-11927298D01*
X17253563Y-11927298D02*
X17263087Y-11917774D01*
X17263087Y-11917774D02*
X17282134Y-11908250D01*
X17282134Y-11908250D02*
X17310706Y-11908250D01*
X17310706Y-11908250D02*
X17329753Y-11917774D01*
X17329753Y-11917774D02*
X17339277Y-11927298D01*
X17339277Y-11927298D02*
X17348801Y-11946346D01*
X17348801Y-11946346D02*
X17348801Y-12003488D01*
X17348801Y-12003488D02*
X17339277Y-12022536D01*
X17339277Y-12022536D02*
X17329753Y-12032060D01*
X17329753Y-12032060D02*
X17310706Y-12041584D01*
X17310706Y-12041584D02*
X17282134Y-12041584D01*
X17463087Y-12041584D02*
X17444039Y-12032060D01*
X17444039Y-12032060D02*
X17434515Y-12013012D01*
X17434515Y-12013012D02*
X17434515Y-11841584D01*
X17615468Y-12032060D02*
X17596420Y-12041584D01*
X17596420Y-12041584D02*
X17558325Y-12041584D01*
X17558325Y-12041584D02*
X17539277Y-12032060D01*
X17539277Y-12032060D02*
X17529753Y-12013012D01*
X17529753Y-12013012D02*
X17529753Y-11936822D01*
X17529753Y-11936822D02*
X17539277Y-11917774D01*
X17539277Y-11917774D02*
X17558325Y-11908250D01*
X17558325Y-11908250D02*
X17596420Y-11908250D01*
X17596420Y-11908250D02*
X17615468Y-11917774D01*
X17615468Y-11917774D02*
X17624992Y-11936822D01*
X17624992Y-11936822D02*
X17624992Y-11955869D01*
X17624992Y-11955869D02*
X17529753Y-11974917D01*
X17701182Y-12032060D02*
X17720230Y-12041584D01*
X17720230Y-12041584D02*
X17758325Y-12041584D01*
X17758325Y-12041584D02*
X17777373Y-12032060D01*
X17777373Y-12032060D02*
X17786896Y-12013012D01*
X17786896Y-12013012D02*
X17786896Y-12003488D01*
X17786896Y-12003488D02*
X17777373Y-11984441D01*
X17777373Y-11984441D02*
X17758325Y-11974917D01*
X17758325Y-11974917D02*
X17729753Y-11974917D01*
X17729753Y-11974917D02*
X17710706Y-11965393D01*
X17710706Y-11965393D02*
X17701182Y-11946346D01*
X17701182Y-11946346D02*
X17701182Y-11936822D01*
X17701182Y-11936822D02*
X17710706Y-11917774D01*
X17710706Y-11917774D02*
X17729753Y-11908250D01*
X17729753Y-11908250D02*
X17758325Y-11908250D01*
X17758325Y-11908250D02*
X17777373Y-11917774D01*
X17853563Y-12117774D02*
X17863087Y-12108250D01*
X17863087Y-12108250D02*
X17882134Y-12079679D01*
X17882134Y-12079679D02*
X17891658Y-12060631D01*
X17891658Y-12060631D02*
X17901182Y-12032060D01*
X17901182Y-12032060D02*
X17910706Y-11984441D01*
X17910706Y-11984441D02*
X17910706Y-11946346D01*
X17910706Y-11946346D02*
X17901182Y-11898727D01*
X17901182Y-11898727D02*
X17891658Y-11870155D01*
X17891658Y-11870155D02*
X17882134Y-11851108D01*
X17882134Y-11851108D02*
X17863087Y-11822536D01*
X17863087Y-11822536D02*
X17853563Y-11813012D01*
D12*
X13028500Y-12264100D02*
X13078500Y-12214100D01*
X13028500Y-12164100D01*
X12978500Y-12214100D01*
X13028500Y-12264100D01*
D11*
X13444039Y-12305584D02*
X13329753Y-12305584D01*
X13386896Y-12305584D02*
X13386896Y-12105584D01*
X13386896Y-12105584D02*
X13367848Y-12134155D01*
X13367848Y-12134155D02*
X13348801Y-12153203D01*
X13348801Y-12153203D02*
X13329753Y-12162727D01*
X13529753Y-12286536D02*
X13539277Y-12296060D01*
X13539277Y-12296060D02*
X13529753Y-12305584D01*
X13529753Y-12305584D02*
X13520229Y-12296060D01*
X13520229Y-12296060D02*
X13529753Y-12286536D01*
X13529753Y-12286536D02*
X13529753Y-12305584D01*
X13663086Y-12105584D02*
X13682134Y-12105584D01*
X13682134Y-12105584D02*
X13701182Y-12115108D01*
X13701182Y-12115108D02*
X13710705Y-12124631D01*
X13710705Y-12124631D02*
X13720229Y-12143679D01*
X13720229Y-12143679D02*
X13729753Y-12181774D01*
X13729753Y-12181774D02*
X13729753Y-12229393D01*
X13729753Y-12229393D02*
X13720229Y-12267488D01*
X13720229Y-12267488D02*
X13710705Y-12286536D01*
X13710705Y-12286536D02*
X13701182Y-12296060D01*
X13701182Y-12296060D02*
X13682134Y-12305584D01*
X13682134Y-12305584D02*
X13663086Y-12305584D01*
X13663086Y-12305584D02*
X13644039Y-12296060D01*
X13644039Y-12296060D02*
X13634515Y-12286536D01*
X13634515Y-12286536D02*
X13624991Y-12267488D01*
X13624991Y-12267488D02*
X13615467Y-12229393D01*
X13615467Y-12229393D02*
X13615467Y-12181774D01*
X13615467Y-12181774D02*
X13624991Y-12143679D01*
X13624991Y-12143679D02*
X13634515Y-12124631D01*
X13634515Y-12124631D02*
X13644039Y-12115108D01*
X13644039Y-12115108D02*
X13663086Y-12105584D01*
X13853562Y-12105584D02*
X13872610Y-12105584D01*
X13872610Y-12105584D02*
X13891658Y-12115108D01*
X13891658Y-12115108D02*
X13901182Y-12124631D01*
X13901182Y-12124631D02*
X13910705Y-12143679D01*
X13910705Y-12143679D02*
X13920229Y-12181774D01*
X13920229Y-12181774D02*
X13920229Y-12229393D01*
X13920229Y-12229393D02*
X13910705Y-12267488D01*
X13910705Y-12267488D02*
X13901182Y-12286536D01*
X13901182Y-12286536D02*
X13891658Y-12296060D01*
X13891658Y-12296060D02*
X13872610Y-12305584D01*
X13872610Y-12305584D02*
X13853562Y-12305584D01*
X13853562Y-12305584D02*
X13834515Y-12296060D01*
X13834515Y-12296060D02*
X13824991Y-12286536D01*
X13824991Y-12286536D02*
X13815467Y-12267488D01*
X13815467Y-12267488D02*
X13805943Y-12229393D01*
X13805943Y-12229393D02*
X13805943Y-12181774D01*
X13805943Y-12181774D02*
X13815467Y-12143679D01*
X13815467Y-12143679D02*
X13824991Y-12124631D01*
X13824991Y-12124631D02*
X13834515Y-12115108D01*
X13834515Y-12115108D02*
X13853562Y-12105584D01*
X14044039Y-12105584D02*
X14063086Y-12105584D01*
X14063086Y-12105584D02*
X14082134Y-12115108D01*
X14082134Y-12115108D02*
X14091658Y-12124631D01*
X14091658Y-12124631D02*
X14101182Y-12143679D01*
X14101182Y-12143679D02*
X14110705Y-12181774D01*
X14110705Y-12181774D02*
X14110705Y-12229393D01*
X14110705Y-12229393D02*
X14101182Y-12267488D01*
X14101182Y-12267488D02*
X14091658Y-12286536D01*
X14091658Y-12286536D02*
X14082134Y-12296060D01*
X14082134Y-12296060D02*
X14063086Y-12305584D01*
X14063086Y-12305584D02*
X14044039Y-12305584D01*
X14044039Y-12305584D02*
X14024991Y-12296060D01*
X14024991Y-12296060D02*
X14015467Y-12286536D01*
X14015467Y-12286536D02*
X14005943Y-12267488D01*
X14005943Y-12267488D02*
X13996420Y-12229393D01*
X13996420Y-12229393D02*
X13996420Y-12181774D01*
X13996420Y-12181774D02*
X14005943Y-12143679D01*
X14005943Y-12143679D02*
X14015467Y-12124631D01*
X14015467Y-12124631D02*
X14024991Y-12115108D01*
X14024991Y-12115108D02*
X14044039Y-12105584D01*
X14196420Y-12305584D02*
X14196420Y-12172250D01*
X14196420Y-12191298D02*
X14205943Y-12181774D01*
X14205943Y-12181774D02*
X14224991Y-12172250D01*
X14224991Y-12172250D02*
X14253563Y-12172250D01*
X14253563Y-12172250D02*
X14272610Y-12181774D01*
X14272610Y-12181774D02*
X14282134Y-12200822D01*
X14282134Y-12200822D02*
X14282134Y-12305584D01*
X14282134Y-12200822D02*
X14291658Y-12181774D01*
X14291658Y-12181774D02*
X14310705Y-12172250D01*
X14310705Y-12172250D02*
X14339277Y-12172250D01*
X14339277Y-12172250D02*
X14358324Y-12181774D01*
X14358324Y-12181774D02*
X14367848Y-12200822D01*
X14367848Y-12200822D02*
X14367848Y-12305584D01*
X14463086Y-12305584D02*
X14463086Y-12172250D01*
X14463086Y-12191298D02*
X14472610Y-12181774D01*
X14472610Y-12181774D02*
X14491658Y-12172250D01*
X14491658Y-12172250D02*
X14520229Y-12172250D01*
X14520229Y-12172250D02*
X14539277Y-12181774D01*
X14539277Y-12181774D02*
X14548801Y-12200822D01*
X14548801Y-12200822D02*
X14548801Y-12305584D01*
X14548801Y-12200822D02*
X14558324Y-12181774D01*
X14558324Y-12181774D02*
X14577372Y-12172250D01*
X14577372Y-12172250D02*
X14605943Y-12172250D01*
X14605943Y-12172250D02*
X14624991Y-12181774D01*
X14624991Y-12181774D02*
X14634515Y-12200822D01*
X14634515Y-12200822D02*
X14634515Y-12305584D01*
X15024991Y-12096060D02*
X14853563Y-12353203D01*
X15282134Y-12105584D02*
X15301182Y-12105584D01*
X15301182Y-12105584D02*
X15320229Y-12115108D01*
X15320229Y-12115108D02*
X15329753Y-12124631D01*
X15329753Y-12124631D02*
X15339277Y-12143679D01*
X15339277Y-12143679D02*
X15348801Y-12181774D01*
X15348801Y-12181774D02*
X15348801Y-12229393D01*
X15348801Y-12229393D02*
X15339277Y-12267488D01*
X15339277Y-12267488D02*
X15329753Y-12286536D01*
X15329753Y-12286536D02*
X15320229Y-12296060D01*
X15320229Y-12296060D02*
X15301182Y-12305584D01*
X15301182Y-12305584D02*
X15282134Y-12305584D01*
X15282134Y-12305584D02*
X15263086Y-12296060D01*
X15263086Y-12296060D02*
X15253563Y-12286536D01*
X15253563Y-12286536D02*
X15244039Y-12267488D01*
X15244039Y-12267488D02*
X15234515Y-12229393D01*
X15234515Y-12229393D02*
X15234515Y-12181774D01*
X15234515Y-12181774D02*
X15244039Y-12143679D01*
X15244039Y-12143679D02*
X15253563Y-12124631D01*
X15253563Y-12124631D02*
X15263086Y-12115108D01*
X15263086Y-12115108D02*
X15282134Y-12105584D01*
X15434515Y-12286536D02*
X15444039Y-12296060D01*
X15444039Y-12296060D02*
X15434515Y-12305584D01*
X15434515Y-12305584D02*
X15424991Y-12296060D01*
X15424991Y-12296060D02*
X15434515Y-12286536D01*
X15434515Y-12286536D02*
X15434515Y-12305584D01*
X15567848Y-12105584D02*
X15586896Y-12105584D01*
X15586896Y-12105584D02*
X15605944Y-12115108D01*
X15605944Y-12115108D02*
X15615467Y-12124631D01*
X15615467Y-12124631D02*
X15624991Y-12143679D01*
X15624991Y-12143679D02*
X15634515Y-12181774D01*
X15634515Y-12181774D02*
X15634515Y-12229393D01*
X15634515Y-12229393D02*
X15624991Y-12267488D01*
X15624991Y-12267488D02*
X15615467Y-12286536D01*
X15615467Y-12286536D02*
X15605944Y-12296060D01*
X15605944Y-12296060D02*
X15586896Y-12305584D01*
X15586896Y-12305584D02*
X15567848Y-12305584D01*
X15567848Y-12305584D02*
X15548801Y-12296060D01*
X15548801Y-12296060D02*
X15539277Y-12286536D01*
X15539277Y-12286536D02*
X15529753Y-12267488D01*
X15529753Y-12267488D02*
X15520229Y-12229393D01*
X15520229Y-12229393D02*
X15520229Y-12181774D01*
X15520229Y-12181774D02*
X15529753Y-12143679D01*
X15529753Y-12143679D02*
X15539277Y-12124631D01*
X15539277Y-12124631D02*
X15548801Y-12115108D01*
X15548801Y-12115108D02*
X15567848Y-12105584D01*
X15701182Y-12105584D02*
X15824991Y-12105584D01*
X15824991Y-12105584D02*
X15758325Y-12181774D01*
X15758325Y-12181774D02*
X15786896Y-12181774D01*
X15786896Y-12181774D02*
X15805944Y-12191298D01*
X15805944Y-12191298D02*
X15815467Y-12200822D01*
X15815467Y-12200822D02*
X15824991Y-12219869D01*
X15824991Y-12219869D02*
X15824991Y-12267488D01*
X15824991Y-12267488D02*
X15815467Y-12286536D01*
X15815467Y-12286536D02*
X15805944Y-12296060D01*
X15805944Y-12296060D02*
X15786896Y-12305584D01*
X15786896Y-12305584D02*
X15729753Y-12305584D01*
X15729753Y-12305584D02*
X15710706Y-12296060D01*
X15710706Y-12296060D02*
X15701182Y-12286536D01*
X15920229Y-12305584D02*
X15958325Y-12305584D01*
X15958325Y-12305584D02*
X15977372Y-12296060D01*
X15977372Y-12296060D02*
X15986896Y-12286536D01*
X15986896Y-12286536D02*
X16005944Y-12257965D01*
X16005944Y-12257965D02*
X16015467Y-12219869D01*
X16015467Y-12219869D02*
X16015467Y-12143679D01*
X16015467Y-12143679D02*
X16005944Y-12124631D01*
X16005944Y-12124631D02*
X15996420Y-12115108D01*
X15996420Y-12115108D02*
X15977372Y-12105584D01*
X15977372Y-12105584D02*
X15939277Y-12105584D01*
X15939277Y-12105584D02*
X15920229Y-12115108D01*
X15920229Y-12115108D02*
X15910706Y-12124631D01*
X15910706Y-12124631D02*
X15901182Y-12143679D01*
X15901182Y-12143679D02*
X15901182Y-12191298D01*
X15901182Y-12191298D02*
X15910706Y-12210346D01*
X15910706Y-12210346D02*
X15920229Y-12219869D01*
X15920229Y-12219869D02*
X15939277Y-12229393D01*
X15939277Y-12229393D02*
X15977372Y-12229393D01*
X15977372Y-12229393D02*
X15996420Y-12219869D01*
X15996420Y-12219869D02*
X16005944Y-12210346D01*
X16005944Y-12210346D02*
X16015467Y-12191298D01*
X16186896Y-12172250D02*
X16186896Y-12305584D01*
X16139277Y-12096060D02*
X16091658Y-12238917D01*
X16091658Y-12238917D02*
X16215467Y-12238917D01*
X16282134Y-12105584D02*
X16282134Y-12143679D01*
X16358325Y-12105584D02*
X16358325Y-12143679D01*
X16653563Y-12381774D02*
X16644039Y-12372250D01*
X16644039Y-12372250D02*
X16624991Y-12343679D01*
X16624991Y-12343679D02*
X16615468Y-12324631D01*
X16615468Y-12324631D02*
X16605944Y-12296060D01*
X16605944Y-12296060D02*
X16596420Y-12248441D01*
X16596420Y-12248441D02*
X16596420Y-12210346D01*
X16596420Y-12210346D02*
X16605944Y-12162727D01*
X16605944Y-12162727D02*
X16615468Y-12134155D01*
X16615468Y-12134155D02*
X16624991Y-12115108D01*
X16624991Y-12115108D02*
X16644039Y-12086536D01*
X16644039Y-12086536D02*
X16653563Y-12077012D01*
X16834515Y-12305584D02*
X16720229Y-12305584D01*
X16777372Y-12305584D02*
X16777372Y-12105584D01*
X16777372Y-12105584D02*
X16758325Y-12134155D01*
X16758325Y-12134155D02*
X16739277Y-12153203D01*
X16739277Y-12153203D02*
X16720229Y-12162727D01*
X16958325Y-12105584D02*
X16977372Y-12105584D01*
X16977372Y-12105584D02*
X16996420Y-12115108D01*
X16996420Y-12115108D02*
X17005944Y-12124631D01*
X17005944Y-12124631D02*
X17015468Y-12143679D01*
X17015468Y-12143679D02*
X17024991Y-12181774D01*
X17024991Y-12181774D02*
X17024991Y-12229393D01*
X17024991Y-12229393D02*
X17015468Y-12267488D01*
X17015468Y-12267488D02*
X17005944Y-12286536D01*
X17005944Y-12286536D02*
X16996420Y-12296060D01*
X16996420Y-12296060D02*
X16977372Y-12305584D01*
X16977372Y-12305584D02*
X16958325Y-12305584D01*
X16958325Y-12305584D02*
X16939277Y-12296060D01*
X16939277Y-12296060D02*
X16929753Y-12286536D01*
X16929753Y-12286536D02*
X16920230Y-12267488D01*
X16920230Y-12267488D02*
X16910706Y-12229393D01*
X16910706Y-12229393D02*
X16910706Y-12181774D01*
X16910706Y-12181774D02*
X16920230Y-12143679D01*
X16920230Y-12143679D02*
X16929753Y-12124631D01*
X16929753Y-12124631D02*
X16939277Y-12115108D01*
X16939277Y-12115108D02*
X16958325Y-12105584D01*
X17263087Y-12305584D02*
X17263087Y-12105584D01*
X17348801Y-12305584D02*
X17348801Y-12200822D01*
X17348801Y-12200822D02*
X17339277Y-12181774D01*
X17339277Y-12181774D02*
X17320230Y-12172250D01*
X17320230Y-12172250D02*
X17291658Y-12172250D01*
X17291658Y-12172250D02*
X17272611Y-12181774D01*
X17272611Y-12181774D02*
X17263087Y-12191298D01*
X17472611Y-12305584D02*
X17453563Y-12296060D01*
X17453563Y-12296060D02*
X17444039Y-12286536D01*
X17444039Y-12286536D02*
X17434515Y-12267488D01*
X17434515Y-12267488D02*
X17434515Y-12210346D01*
X17434515Y-12210346D02*
X17444039Y-12191298D01*
X17444039Y-12191298D02*
X17453563Y-12181774D01*
X17453563Y-12181774D02*
X17472611Y-12172250D01*
X17472611Y-12172250D02*
X17501182Y-12172250D01*
X17501182Y-12172250D02*
X17520230Y-12181774D01*
X17520230Y-12181774D02*
X17529753Y-12191298D01*
X17529753Y-12191298D02*
X17539277Y-12210346D01*
X17539277Y-12210346D02*
X17539277Y-12267488D01*
X17539277Y-12267488D02*
X17529753Y-12286536D01*
X17529753Y-12286536D02*
X17520230Y-12296060D01*
X17520230Y-12296060D02*
X17501182Y-12305584D01*
X17501182Y-12305584D02*
X17472611Y-12305584D01*
X17653563Y-12305584D02*
X17634515Y-12296060D01*
X17634515Y-12296060D02*
X17624992Y-12277012D01*
X17624992Y-12277012D02*
X17624992Y-12105584D01*
X17805944Y-12296060D02*
X17786896Y-12305584D01*
X17786896Y-12305584D02*
X17748801Y-12305584D01*
X17748801Y-12305584D02*
X17729753Y-12296060D01*
X17729753Y-12296060D02*
X17720230Y-12277012D01*
X17720230Y-12277012D02*
X17720230Y-12200822D01*
X17720230Y-12200822D02*
X17729753Y-12181774D01*
X17729753Y-12181774D02*
X17748801Y-12172250D01*
X17748801Y-12172250D02*
X17786896Y-12172250D01*
X17786896Y-12172250D02*
X17805944Y-12181774D01*
X17805944Y-12181774D02*
X17815468Y-12200822D01*
X17815468Y-12200822D02*
X17815468Y-12219869D01*
X17815468Y-12219869D02*
X17720230Y-12238917D01*
X17891658Y-12296060D02*
X17910706Y-12305584D01*
X17910706Y-12305584D02*
X17948801Y-12305584D01*
X17948801Y-12305584D02*
X17967849Y-12296060D01*
X17967849Y-12296060D02*
X17977373Y-12277012D01*
X17977373Y-12277012D02*
X17977373Y-12267488D01*
X17977373Y-12267488D02*
X17967849Y-12248441D01*
X17967849Y-12248441D02*
X17948801Y-12238917D01*
X17948801Y-12238917D02*
X17920230Y-12238917D01*
X17920230Y-12238917D02*
X17901182Y-12229393D01*
X17901182Y-12229393D02*
X17891658Y-12210346D01*
X17891658Y-12210346D02*
X17891658Y-12200822D01*
X17891658Y-12200822D02*
X17901182Y-12181774D01*
X17901182Y-12181774D02*
X17920230Y-12172250D01*
X17920230Y-12172250D02*
X17948801Y-12172250D01*
X17948801Y-12172250D02*
X17967849Y-12181774D01*
X18215468Y-12229393D02*
X18367849Y-12229393D01*
X18291658Y-12305584D02*
X18291658Y-12153203D01*
X18596420Y-12105584D02*
X18720230Y-12105584D01*
X18720230Y-12105584D02*
X18653563Y-12181774D01*
X18653563Y-12181774D02*
X18682135Y-12181774D01*
X18682135Y-12181774D02*
X18701182Y-12191298D01*
X18701182Y-12191298D02*
X18710706Y-12200822D01*
X18710706Y-12200822D02*
X18720230Y-12219869D01*
X18720230Y-12219869D02*
X18720230Y-12267488D01*
X18720230Y-12267488D02*
X18710706Y-12286536D01*
X18710706Y-12286536D02*
X18701182Y-12296060D01*
X18701182Y-12296060D02*
X18682135Y-12305584D01*
X18682135Y-12305584D02*
X18624992Y-12305584D01*
X18624992Y-12305584D02*
X18605944Y-12296060D01*
X18605944Y-12296060D02*
X18596420Y-12286536D01*
X18948801Y-12296060D02*
X18967849Y-12305584D01*
X18967849Y-12305584D02*
X19005944Y-12305584D01*
X19005944Y-12305584D02*
X19024992Y-12296060D01*
X19024992Y-12296060D02*
X19034516Y-12277012D01*
X19034516Y-12277012D02*
X19034516Y-12267488D01*
X19034516Y-12267488D02*
X19024992Y-12248441D01*
X19024992Y-12248441D02*
X19005944Y-12238917D01*
X19005944Y-12238917D02*
X18977373Y-12238917D01*
X18977373Y-12238917D02*
X18958325Y-12229393D01*
X18958325Y-12229393D02*
X18948801Y-12210346D01*
X18948801Y-12210346D02*
X18948801Y-12200822D01*
X18948801Y-12200822D02*
X18958325Y-12181774D01*
X18958325Y-12181774D02*
X18977373Y-12172250D01*
X18977373Y-12172250D02*
X19005944Y-12172250D01*
X19005944Y-12172250D02*
X19024992Y-12181774D01*
X19148801Y-12305584D02*
X19129754Y-12296060D01*
X19129754Y-12296060D02*
X19120230Y-12277012D01*
X19120230Y-12277012D02*
X19120230Y-12105584D01*
X19253563Y-12305584D02*
X19234516Y-12296060D01*
X19234516Y-12296060D02*
X19224992Y-12286536D01*
X19224992Y-12286536D02*
X19215468Y-12267488D01*
X19215468Y-12267488D02*
X19215468Y-12210346D01*
X19215468Y-12210346D02*
X19224992Y-12191298D01*
X19224992Y-12191298D02*
X19234516Y-12181774D01*
X19234516Y-12181774D02*
X19253563Y-12172250D01*
X19253563Y-12172250D02*
X19282135Y-12172250D01*
X19282135Y-12172250D02*
X19301182Y-12181774D01*
X19301182Y-12181774D02*
X19310706Y-12191298D01*
X19310706Y-12191298D02*
X19320230Y-12210346D01*
X19320230Y-12210346D02*
X19320230Y-12267488D01*
X19320230Y-12267488D02*
X19310706Y-12286536D01*
X19310706Y-12286536D02*
X19301182Y-12296060D01*
X19301182Y-12296060D02*
X19282135Y-12305584D01*
X19282135Y-12305584D02*
X19253563Y-12305584D01*
X19377373Y-12172250D02*
X19453563Y-12172250D01*
X19405944Y-12105584D02*
X19405944Y-12277012D01*
X19405944Y-12277012D02*
X19415468Y-12296060D01*
X19415468Y-12296060D02*
X19434516Y-12305584D01*
X19434516Y-12305584D02*
X19453563Y-12305584D01*
X19510706Y-12296060D02*
X19529754Y-12305584D01*
X19529754Y-12305584D02*
X19567849Y-12305584D01*
X19567849Y-12305584D02*
X19586897Y-12296060D01*
X19586897Y-12296060D02*
X19596420Y-12277012D01*
X19596420Y-12277012D02*
X19596420Y-12267488D01*
X19596420Y-12267488D02*
X19586897Y-12248441D01*
X19586897Y-12248441D02*
X19567849Y-12238917D01*
X19567849Y-12238917D02*
X19539277Y-12238917D01*
X19539277Y-12238917D02*
X19520230Y-12229393D01*
X19520230Y-12229393D02*
X19510706Y-12210346D01*
X19510706Y-12210346D02*
X19510706Y-12200822D01*
X19510706Y-12200822D02*
X19520230Y-12181774D01*
X19520230Y-12181774D02*
X19539277Y-12172250D01*
X19539277Y-12172250D02*
X19567849Y-12172250D01*
X19567849Y-12172250D02*
X19586897Y-12181774D01*
X19663087Y-12381774D02*
X19672611Y-12372250D01*
X19672611Y-12372250D02*
X19691658Y-12343679D01*
X19691658Y-12343679D02*
X19701182Y-12324631D01*
X19701182Y-12324631D02*
X19710706Y-12296060D01*
X19710706Y-12296060D02*
X19720230Y-12248441D01*
X19720230Y-12248441D02*
X19720230Y-12210346D01*
X19720230Y-12210346D02*
X19710706Y-12162727D01*
X19710706Y-12162727D02*
X19701182Y-12134155D01*
X19701182Y-12134155D02*
X19691658Y-12115108D01*
X19691658Y-12115108D02*
X19672611Y-12086536D01*
X19672611Y-12086536D02*
X19663087Y-12077012D01*
D13*
X12968500Y-12423100D02*
X13078500Y-12533100D01*
X13078500Y-12423100D02*
X12968500Y-12533100D01*
X13078500Y-12478100D02*
G75*
G02*
X12968500Y-12478100I-55000J0D01*
G01*
X12968500Y-12478100D02*
G75*
G02*
X13078500Y-12478100I55000J0D01*
G01*
D11*
X13444039Y-12569584D02*
X13329753Y-12569584D01*
X13386896Y-12569584D02*
X13386896Y-12369584D01*
X13386896Y-12369584D02*
X13367848Y-12398155D01*
X13367848Y-12398155D02*
X13348801Y-12417203D01*
X13348801Y-12417203D02*
X13329753Y-12426727D01*
X13529753Y-12550536D02*
X13539277Y-12560060D01*
X13539277Y-12560060D02*
X13529753Y-12569584D01*
X13529753Y-12569584D02*
X13520229Y-12560060D01*
X13520229Y-12560060D02*
X13529753Y-12550536D01*
X13529753Y-12550536D02*
X13529753Y-12569584D01*
X13729753Y-12569584D02*
X13615467Y-12569584D01*
X13672610Y-12569584D02*
X13672610Y-12369584D01*
X13672610Y-12369584D02*
X13653562Y-12398155D01*
X13653562Y-12398155D02*
X13634515Y-12417203D01*
X13634515Y-12417203D02*
X13615467Y-12426727D01*
X13853562Y-12369584D02*
X13872610Y-12369584D01*
X13872610Y-12369584D02*
X13891658Y-12379108D01*
X13891658Y-12379108D02*
X13901182Y-12388631D01*
X13901182Y-12388631D02*
X13910705Y-12407679D01*
X13910705Y-12407679D02*
X13920229Y-12445774D01*
X13920229Y-12445774D02*
X13920229Y-12493393D01*
X13920229Y-12493393D02*
X13910705Y-12531488D01*
X13910705Y-12531488D02*
X13901182Y-12550536D01*
X13901182Y-12550536D02*
X13891658Y-12560060D01*
X13891658Y-12560060D02*
X13872610Y-12569584D01*
X13872610Y-12569584D02*
X13853562Y-12569584D01*
X13853562Y-12569584D02*
X13834515Y-12560060D01*
X13834515Y-12560060D02*
X13824991Y-12550536D01*
X13824991Y-12550536D02*
X13815467Y-12531488D01*
X13815467Y-12531488D02*
X13805943Y-12493393D01*
X13805943Y-12493393D02*
X13805943Y-12445774D01*
X13805943Y-12445774D02*
X13815467Y-12407679D01*
X13815467Y-12407679D02*
X13824991Y-12388631D01*
X13824991Y-12388631D02*
X13834515Y-12379108D01*
X13834515Y-12379108D02*
X13853562Y-12369584D01*
X14044039Y-12369584D02*
X14063086Y-12369584D01*
X14063086Y-12369584D02*
X14082134Y-12379108D01*
X14082134Y-12379108D02*
X14091658Y-12388631D01*
X14091658Y-12388631D02*
X14101182Y-12407679D01*
X14101182Y-12407679D02*
X14110705Y-12445774D01*
X14110705Y-12445774D02*
X14110705Y-12493393D01*
X14110705Y-12493393D02*
X14101182Y-12531488D01*
X14101182Y-12531488D02*
X14091658Y-12550536D01*
X14091658Y-12550536D02*
X14082134Y-12560060D01*
X14082134Y-12560060D02*
X14063086Y-12569584D01*
X14063086Y-12569584D02*
X14044039Y-12569584D01*
X14044039Y-12569584D02*
X14024991Y-12560060D01*
X14024991Y-12560060D02*
X14015467Y-12550536D01*
X14015467Y-12550536D02*
X14005943Y-12531488D01*
X14005943Y-12531488D02*
X13996420Y-12493393D01*
X13996420Y-12493393D02*
X13996420Y-12445774D01*
X13996420Y-12445774D02*
X14005943Y-12407679D01*
X14005943Y-12407679D02*
X14015467Y-12388631D01*
X14015467Y-12388631D02*
X14024991Y-12379108D01*
X14024991Y-12379108D02*
X14044039Y-12369584D01*
X14196420Y-12569584D02*
X14196420Y-12436250D01*
X14196420Y-12455298D02*
X14205943Y-12445774D01*
X14205943Y-12445774D02*
X14224991Y-12436250D01*
X14224991Y-12436250D02*
X14253563Y-12436250D01*
X14253563Y-12436250D02*
X14272610Y-12445774D01*
X14272610Y-12445774D02*
X14282134Y-12464822D01*
X14282134Y-12464822D02*
X14282134Y-12569584D01*
X14282134Y-12464822D02*
X14291658Y-12445774D01*
X14291658Y-12445774D02*
X14310705Y-12436250D01*
X14310705Y-12436250D02*
X14339277Y-12436250D01*
X14339277Y-12436250D02*
X14358324Y-12445774D01*
X14358324Y-12445774D02*
X14367848Y-12464822D01*
X14367848Y-12464822D02*
X14367848Y-12569584D01*
X14463086Y-12569584D02*
X14463086Y-12436250D01*
X14463086Y-12455298D02*
X14472610Y-12445774D01*
X14472610Y-12445774D02*
X14491658Y-12436250D01*
X14491658Y-12436250D02*
X14520229Y-12436250D01*
X14520229Y-12436250D02*
X14539277Y-12445774D01*
X14539277Y-12445774D02*
X14548801Y-12464822D01*
X14548801Y-12464822D02*
X14548801Y-12569584D01*
X14548801Y-12464822D02*
X14558324Y-12445774D01*
X14558324Y-12445774D02*
X14577372Y-12436250D01*
X14577372Y-12436250D02*
X14605943Y-12436250D01*
X14605943Y-12436250D02*
X14624991Y-12445774D01*
X14624991Y-12445774D02*
X14634515Y-12464822D01*
X14634515Y-12464822D02*
X14634515Y-12569584D01*
X15024991Y-12360060D02*
X14853563Y-12617203D01*
X15282134Y-12369584D02*
X15301182Y-12369584D01*
X15301182Y-12369584D02*
X15320229Y-12379108D01*
X15320229Y-12379108D02*
X15329753Y-12388631D01*
X15329753Y-12388631D02*
X15339277Y-12407679D01*
X15339277Y-12407679D02*
X15348801Y-12445774D01*
X15348801Y-12445774D02*
X15348801Y-12493393D01*
X15348801Y-12493393D02*
X15339277Y-12531488D01*
X15339277Y-12531488D02*
X15329753Y-12550536D01*
X15329753Y-12550536D02*
X15320229Y-12560060D01*
X15320229Y-12560060D02*
X15301182Y-12569584D01*
X15301182Y-12569584D02*
X15282134Y-12569584D01*
X15282134Y-12569584D02*
X15263086Y-12560060D01*
X15263086Y-12560060D02*
X15253563Y-12550536D01*
X15253563Y-12550536D02*
X15244039Y-12531488D01*
X15244039Y-12531488D02*
X15234515Y-12493393D01*
X15234515Y-12493393D02*
X15234515Y-12445774D01*
X15234515Y-12445774D02*
X15244039Y-12407679D01*
X15244039Y-12407679D02*
X15253563Y-12388631D01*
X15253563Y-12388631D02*
X15263086Y-12379108D01*
X15263086Y-12379108D02*
X15282134Y-12369584D01*
X15434515Y-12550536D02*
X15444039Y-12560060D01*
X15444039Y-12560060D02*
X15434515Y-12569584D01*
X15434515Y-12569584D02*
X15424991Y-12560060D01*
X15424991Y-12560060D02*
X15434515Y-12550536D01*
X15434515Y-12550536D02*
X15434515Y-12569584D01*
X15567848Y-12369584D02*
X15586896Y-12369584D01*
X15586896Y-12369584D02*
X15605944Y-12379108D01*
X15605944Y-12379108D02*
X15615467Y-12388631D01*
X15615467Y-12388631D02*
X15624991Y-12407679D01*
X15624991Y-12407679D02*
X15634515Y-12445774D01*
X15634515Y-12445774D02*
X15634515Y-12493393D01*
X15634515Y-12493393D02*
X15624991Y-12531488D01*
X15624991Y-12531488D02*
X15615467Y-12550536D01*
X15615467Y-12550536D02*
X15605944Y-12560060D01*
X15605944Y-12560060D02*
X15586896Y-12569584D01*
X15586896Y-12569584D02*
X15567848Y-12569584D01*
X15567848Y-12569584D02*
X15548801Y-12560060D01*
X15548801Y-12560060D02*
X15539277Y-12550536D01*
X15539277Y-12550536D02*
X15529753Y-12531488D01*
X15529753Y-12531488D02*
X15520229Y-12493393D01*
X15520229Y-12493393D02*
X15520229Y-12445774D01*
X15520229Y-12445774D02*
X15529753Y-12407679D01*
X15529753Y-12407679D02*
X15539277Y-12388631D01*
X15539277Y-12388631D02*
X15548801Y-12379108D01*
X15548801Y-12379108D02*
X15567848Y-12369584D01*
X15805944Y-12436250D02*
X15805944Y-12569584D01*
X15758325Y-12360060D02*
X15710706Y-12502917D01*
X15710706Y-12502917D02*
X15834515Y-12502917D01*
X15891658Y-12369584D02*
X16015467Y-12369584D01*
X16015467Y-12369584D02*
X15948801Y-12445774D01*
X15948801Y-12445774D02*
X15977372Y-12445774D01*
X15977372Y-12445774D02*
X15996420Y-12455298D01*
X15996420Y-12455298D02*
X16005944Y-12464822D01*
X16005944Y-12464822D02*
X16015467Y-12483869D01*
X16015467Y-12483869D02*
X16015467Y-12531488D01*
X16015467Y-12531488D02*
X16005944Y-12550536D01*
X16005944Y-12550536D02*
X15996420Y-12560060D01*
X15996420Y-12560060D02*
X15977372Y-12569584D01*
X15977372Y-12569584D02*
X15920229Y-12569584D01*
X15920229Y-12569584D02*
X15901182Y-12560060D01*
X15901182Y-12560060D02*
X15891658Y-12550536D01*
X16082134Y-12369584D02*
X16205944Y-12369584D01*
X16205944Y-12369584D02*
X16139277Y-12445774D01*
X16139277Y-12445774D02*
X16167848Y-12445774D01*
X16167848Y-12445774D02*
X16186896Y-12455298D01*
X16186896Y-12455298D02*
X16196420Y-12464822D01*
X16196420Y-12464822D02*
X16205944Y-12483869D01*
X16205944Y-12483869D02*
X16205944Y-12531488D01*
X16205944Y-12531488D02*
X16196420Y-12550536D01*
X16196420Y-12550536D02*
X16186896Y-12560060D01*
X16186896Y-12560060D02*
X16167848Y-12569584D01*
X16167848Y-12569584D02*
X16110706Y-12569584D01*
X16110706Y-12569584D02*
X16091658Y-12560060D01*
X16091658Y-12560060D02*
X16082134Y-12550536D01*
X16282134Y-12369584D02*
X16282134Y-12407679D01*
X16358325Y-12369584D02*
X16358325Y-12407679D01*
X16653563Y-12645774D02*
X16644039Y-12636250D01*
X16644039Y-12636250D02*
X16624991Y-12607679D01*
X16624991Y-12607679D02*
X16615468Y-12588631D01*
X16615468Y-12588631D02*
X16605944Y-12560060D01*
X16605944Y-12560060D02*
X16596420Y-12512441D01*
X16596420Y-12512441D02*
X16596420Y-12474346D01*
X16596420Y-12474346D02*
X16605944Y-12426727D01*
X16605944Y-12426727D02*
X16615468Y-12398155D01*
X16615468Y-12398155D02*
X16624991Y-12379108D01*
X16624991Y-12379108D02*
X16644039Y-12350536D01*
X16644039Y-12350536D02*
X16653563Y-12341012D01*
X16815468Y-12369584D02*
X16777372Y-12369584D01*
X16777372Y-12369584D02*
X16758325Y-12379108D01*
X16758325Y-12379108D02*
X16748801Y-12388631D01*
X16748801Y-12388631D02*
X16729753Y-12417203D01*
X16729753Y-12417203D02*
X16720229Y-12455298D01*
X16720229Y-12455298D02*
X16720229Y-12531488D01*
X16720229Y-12531488D02*
X16729753Y-12550536D01*
X16729753Y-12550536D02*
X16739277Y-12560060D01*
X16739277Y-12560060D02*
X16758325Y-12569584D01*
X16758325Y-12569584D02*
X16796420Y-12569584D01*
X16796420Y-12569584D02*
X16815468Y-12560060D01*
X16815468Y-12560060D02*
X16824991Y-12550536D01*
X16824991Y-12550536D02*
X16834515Y-12531488D01*
X16834515Y-12531488D02*
X16834515Y-12483869D01*
X16834515Y-12483869D02*
X16824991Y-12464822D01*
X16824991Y-12464822D02*
X16815468Y-12455298D01*
X16815468Y-12455298D02*
X16796420Y-12445774D01*
X16796420Y-12445774D02*
X16758325Y-12445774D01*
X16758325Y-12445774D02*
X16739277Y-12455298D01*
X16739277Y-12455298D02*
X16729753Y-12464822D01*
X16729753Y-12464822D02*
X16720229Y-12483869D01*
X17072611Y-12569584D02*
X17072611Y-12369584D01*
X17158325Y-12569584D02*
X17158325Y-12464822D01*
X17158325Y-12464822D02*
X17148801Y-12445774D01*
X17148801Y-12445774D02*
X17129753Y-12436250D01*
X17129753Y-12436250D02*
X17101182Y-12436250D01*
X17101182Y-12436250D02*
X17082134Y-12445774D01*
X17082134Y-12445774D02*
X17072611Y-12455298D01*
X17282134Y-12569584D02*
X17263087Y-12560060D01*
X17263087Y-12560060D02*
X17253563Y-12550536D01*
X17253563Y-12550536D02*
X17244039Y-12531488D01*
X17244039Y-12531488D02*
X17244039Y-12474346D01*
X17244039Y-12474346D02*
X17253563Y-12455298D01*
X17253563Y-12455298D02*
X17263087Y-12445774D01*
X17263087Y-12445774D02*
X17282134Y-12436250D01*
X17282134Y-12436250D02*
X17310706Y-12436250D01*
X17310706Y-12436250D02*
X17329753Y-12445774D01*
X17329753Y-12445774D02*
X17339277Y-12455298D01*
X17339277Y-12455298D02*
X17348801Y-12474346D01*
X17348801Y-12474346D02*
X17348801Y-12531488D01*
X17348801Y-12531488D02*
X17339277Y-12550536D01*
X17339277Y-12550536D02*
X17329753Y-12560060D01*
X17329753Y-12560060D02*
X17310706Y-12569584D01*
X17310706Y-12569584D02*
X17282134Y-12569584D01*
X17463087Y-12569584D02*
X17444039Y-12560060D01*
X17444039Y-12560060D02*
X17434515Y-12541012D01*
X17434515Y-12541012D02*
X17434515Y-12369584D01*
X17615468Y-12560060D02*
X17596420Y-12569584D01*
X17596420Y-12569584D02*
X17558325Y-12569584D01*
X17558325Y-12569584D02*
X17539277Y-12560060D01*
X17539277Y-12560060D02*
X17529753Y-12541012D01*
X17529753Y-12541012D02*
X17529753Y-12464822D01*
X17529753Y-12464822D02*
X17539277Y-12445774D01*
X17539277Y-12445774D02*
X17558325Y-12436250D01*
X17558325Y-12436250D02*
X17596420Y-12436250D01*
X17596420Y-12436250D02*
X17615468Y-12445774D01*
X17615468Y-12445774D02*
X17624992Y-12464822D01*
X17624992Y-12464822D02*
X17624992Y-12483869D01*
X17624992Y-12483869D02*
X17529753Y-12502917D01*
X17701182Y-12560060D02*
X17720230Y-12569584D01*
X17720230Y-12569584D02*
X17758325Y-12569584D01*
X17758325Y-12569584D02*
X17777373Y-12560060D01*
X17777373Y-12560060D02*
X17786896Y-12541012D01*
X17786896Y-12541012D02*
X17786896Y-12531488D01*
X17786896Y-12531488D02*
X17777373Y-12512441D01*
X17777373Y-12512441D02*
X17758325Y-12502917D01*
X17758325Y-12502917D02*
X17729753Y-12502917D01*
X17729753Y-12502917D02*
X17710706Y-12493393D01*
X17710706Y-12493393D02*
X17701182Y-12474346D01*
X17701182Y-12474346D02*
X17701182Y-12464822D01*
X17701182Y-12464822D02*
X17710706Y-12445774D01*
X17710706Y-12445774D02*
X17729753Y-12436250D01*
X17729753Y-12436250D02*
X17758325Y-12436250D01*
X17758325Y-12436250D02*
X17777373Y-12445774D01*
X17853563Y-12645774D02*
X17863087Y-12636250D01*
X17863087Y-12636250D02*
X17882134Y-12607679D01*
X17882134Y-12607679D02*
X17891658Y-12588631D01*
X17891658Y-12588631D02*
X17901182Y-12560060D01*
X17901182Y-12560060D02*
X17910706Y-12512441D01*
X17910706Y-12512441D02*
X17910706Y-12474346D01*
X17910706Y-12474346D02*
X17901182Y-12426727D01*
X17901182Y-12426727D02*
X17891658Y-12398155D01*
X17891658Y-12398155D02*
X17882134Y-12379108D01*
X17882134Y-12379108D02*
X17863087Y-12350536D01*
X17863087Y-12350536D02*
X17853563Y-12341012D01*
D14*
X12926500Y-12666100D02*
X13078500Y-12818100D01*
X13078500Y-12666100D02*
X12926500Y-12818100D01*
X13002500Y-12666100D02*
X13002500Y-12818100D01*
X12926500Y-12742100D02*
X13078500Y-12742100D01*
D11*
X13444039Y-12833584D02*
X13329753Y-12833584D01*
X13386896Y-12833584D02*
X13386896Y-12633584D01*
X13386896Y-12633584D02*
X13367848Y-12662155D01*
X13367848Y-12662155D02*
X13348801Y-12681203D01*
X13348801Y-12681203D02*
X13329753Y-12690727D01*
X13529753Y-12814536D02*
X13539277Y-12824060D01*
X13539277Y-12824060D02*
X13529753Y-12833584D01*
X13529753Y-12833584D02*
X13520229Y-12824060D01*
X13520229Y-12824060D02*
X13529753Y-12814536D01*
X13529753Y-12814536D02*
X13529753Y-12833584D01*
X13720229Y-12633584D02*
X13624991Y-12633584D01*
X13624991Y-12633584D02*
X13615467Y-12728822D01*
X13615467Y-12728822D02*
X13624991Y-12719298D01*
X13624991Y-12719298D02*
X13644039Y-12709774D01*
X13644039Y-12709774D02*
X13691658Y-12709774D01*
X13691658Y-12709774D02*
X13710705Y-12719298D01*
X13710705Y-12719298D02*
X13720229Y-12728822D01*
X13720229Y-12728822D02*
X13729753Y-12747869D01*
X13729753Y-12747869D02*
X13729753Y-12795488D01*
X13729753Y-12795488D02*
X13720229Y-12814536D01*
X13720229Y-12814536D02*
X13710705Y-12824060D01*
X13710705Y-12824060D02*
X13691658Y-12833584D01*
X13691658Y-12833584D02*
X13644039Y-12833584D01*
X13644039Y-12833584D02*
X13624991Y-12824060D01*
X13624991Y-12824060D02*
X13615467Y-12814536D01*
X13805943Y-12652631D02*
X13815467Y-12643108D01*
X13815467Y-12643108D02*
X13834515Y-12633584D01*
X13834515Y-12633584D02*
X13882134Y-12633584D01*
X13882134Y-12633584D02*
X13901182Y-12643108D01*
X13901182Y-12643108D02*
X13910705Y-12652631D01*
X13910705Y-12652631D02*
X13920229Y-12671679D01*
X13920229Y-12671679D02*
X13920229Y-12690727D01*
X13920229Y-12690727D02*
X13910705Y-12719298D01*
X13910705Y-12719298D02*
X13796420Y-12833584D01*
X13796420Y-12833584D02*
X13920229Y-12833584D01*
X14044039Y-12633584D02*
X14063086Y-12633584D01*
X14063086Y-12633584D02*
X14082134Y-12643108D01*
X14082134Y-12643108D02*
X14091658Y-12652631D01*
X14091658Y-12652631D02*
X14101182Y-12671679D01*
X14101182Y-12671679D02*
X14110705Y-12709774D01*
X14110705Y-12709774D02*
X14110705Y-12757393D01*
X14110705Y-12757393D02*
X14101182Y-12795488D01*
X14101182Y-12795488D02*
X14091658Y-12814536D01*
X14091658Y-12814536D02*
X14082134Y-12824060D01*
X14082134Y-12824060D02*
X14063086Y-12833584D01*
X14063086Y-12833584D02*
X14044039Y-12833584D01*
X14044039Y-12833584D02*
X14024991Y-12824060D01*
X14024991Y-12824060D02*
X14015467Y-12814536D01*
X14015467Y-12814536D02*
X14005943Y-12795488D01*
X14005943Y-12795488D02*
X13996420Y-12757393D01*
X13996420Y-12757393D02*
X13996420Y-12709774D01*
X13996420Y-12709774D02*
X14005943Y-12671679D01*
X14005943Y-12671679D02*
X14015467Y-12652631D01*
X14015467Y-12652631D02*
X14024991Y-12643108D01*
X14024991Y-12643108D02*
X14044039Y-12633584D01*
X14196420Y-12833584D02*
X14196420Y-12700250D01*
X14196420Y-12719298D02*
X14205943Y-12709774D01*
X14205943Y-12709774D02*
X14224991Y-12700250D01*
X14224991Y-12700250D02*
X14253563Y-12700250D01*
X14253563Y-12700250D02*
X14272610Y-12709774D01*
X14272610Y-12709774D02*
X14282134Y-12728822D01*
X14282134Y-12728822D02*
X14282134Y-12833584D01*
X14282134Y-12728822D02*
X14291658Y-12709774D01*
X14291658Y-12709774D02*
X14310705Y-12700250D01*
X14310705Y-12700250D02*
X14339277Y-12700250D01*
X14339277Y-12700250D02*
X14358324Y-12709774D01*
X14358324Y-12709774D02*
X14367848Y-12728822D01*
X14367848Y-12728822D02*
X14367848Y-12833584D01*
X14463086Y-12833584D02*
X14463086Y-12700250D01*
X14463086Y-12719298D02*
X14472610Y-12709774D01*
X14472610Y-12709774D02*
X14491658Y-12700250D01*
X14491658Y-12700250D02*
X14520229Y-12700250D01*
X14520229Y-12700250D02*
X14539277Y-12709774D01*
X14539277Y-12709774D02*
X14548801Y-12728822D01*
X14548801Y-12728822D02*
X14548801Y-12833584D01*
X14548801Y-12728822D02*
X14558324Y-12709774D01*
X14558324Y-12709774D02*
X14577372Y-12700250D01*
X14577372Y-12700250D02*
X14605943Y-12700250D01*
X14605943Y-12700250D02*
X14624991Y-12709774D01*
X14624991Y-12709774D02*
X14634515Y-12728822D01*
X14634515Y-12728822D02*
X14634515Y-12833584D01*
X15024991Y-12624060D02*
X14853563Y-12881203D01*
X15282134Y-12633584D02*
X15301182Y-12633584D01*
X15301182Y-12633584D02*
X15320229Y-12643108D01*
X15320229Y-12643108D02*
X15329753Y-12652631D01*
X15329753Y-12652631D02*
X15339277Y-12671679D01*
X15339277Y-12671679D02*
X15348801Y-12709774D01*
X15348801Y-12709774D02*
X15348801Y-12757393D01*
X15348801Y-12757393D02*
X15339277Y-12795488D01*
X15339277Y-12795488D02*
X15329753Y-12814536D01*
X15329753Y-12814536D02*
X15320229Y-12824060D01*
X15320229Y-12824060D02*
X15301182Y-12833584D01*
X15301182Y-12833584D02*
X15282134Y-12833584D01*
X15282134Y-12833584D02*
X15263086Y-12824060D01*
X15263086Y-12824060D02*
X15253563Y-12814536D01*
X15253563Y-12814536D02*
X15244039Y-12795488D01*
X15244039Y-12795488D02*
X15234515Y-12757393D01*
X15234515Y-12757393D02*
X15234515Y-12709774D01*
X15234515Y-12709774D02*
X15244039Y-12671679D01*
X15244039Y-12671679D02*
X15253563Y-12652631D01*
X15253563Y-12652631D02*
X15263086Y-12643108D01*
X15263086Y-12643108D02*
X15282134Y-12633584D01*
X15434515Y-12814536D02*
X15444039Y-12824060D01*
X15444039Y-12824060D02*
X15434515Y-12833584D01*
X15434515Y-12833584D02*
X15424991Y-12824060D01*
X15424991Y-12824060D02*
X15434515Y-12814536D01*
X15434515Y-12814536D02*
X15434515Y-12833584D01*
X15567848Y-12633584D02*
X15586896Y-12633584D01*
X15586896Y-12633584D02*
X15605944Y-12643108D01*
X15605944Y-12643108D02*
X15615467Y-12652631D01*
X15615467Y-12652631D02*
X15624991Y-12671679D01*
X15624991Y-12671679D02*
X15634515Y-12709774D01*
X15634515Y-12709774D02*
X15634515Y-12757393D01*
X15634515Y-12757393D02*
X15624991Y-12795488D01*
X15624991Y-12795488D02*
X15615467Y-12814536D01*
X15615467Y-12814536D02*
X15605944Y-12824060D01*
X15605944Y-12824060D02*
X15586896Y-12833584D01*
X15586896Y-12833584D02*
X15567848Y-12833584D01*
X15567848Y-12833584D02*
X15548801Y-12824060D01*
X15548801Y-12824060D02*
X15539277Y-12814536D01*
X15539277Y-12814536D02*
X15529753Y-12795488D01*
X15529753Y-12795488D02*
X15520229Y-12757393D01*
X15520229Y-12757393D02*
X15520229Y-12709774D01*
X15520229Y-12709774D02*
X15529753Y-12671679D01*
X15529753Y-12671679D02*
X15539277Y-12652631D01*
X15539277Y-12652631D02*
X15548801Y-12643108D01*
X15548801Y-12643108D02*
X15567848Y-12633584D01*
X15815467Y-12633584D02*
X15720229Y-12633584D01*
X15720229Y-12633584D02*
X15710706Y-12728822D01*
X15710706Y-12728822D02*
X15720229Y-12719298D01*
X15720229Y-12719298D02*
X15739277Y-12709774D01*
X15739277Y-12709774D02*
X15786896Y-12709774D01*
X15786896Y-12709774D02*
X15805944Y-12719298D01*
X15805944Y-12719298D02*
X15815467Y-12728822D01*
X15815467Y-12728822D02*
X15824991Y-12747869D01*
X15824991Y-12747869D02*
X15824991Y-12795488D01*
X15824991Y-12795488D02*
X15815467Y-12814536D01*
X15815467Y-12814536D02*
X15805944Y-12824060D01*
X15805944Y-12824060D02*
X15786896Y-12833584D01*
X15786896Y-12833584D02*
X15739277Y-12833584D01*
X15739277Y-12833584D02*
X15720229Y-12824060D01*
X15720229Y-12824060D02*
X15710706Y-12814536D01*
X15920229Y-12833584D02*
X15958325Y-12833584D01*
X15958325Y-12833584D02*
X15977372Y-12824060D01*
X15977372Y-12824060D02*
X15986896Y-12814536D01*
X15986896Y-12814536D02*
X16005944Y-12785965D01*
X16005944Y-12785965D02*
X16015467Y-12747869D01*
X16015467Y-12747869D02*
X16015467Y-12671679D01*
X16015467Y-12671679D02*
X16005944Y-12652631D01*
X16005944Y-12652631D02*
X15996420Y-12643108D01*
X15996420Y-12643108D02*
X15977372Y-12633584D01*
X15977372Y-12633584D02*
X15939277Y-12633584D01*
X15939277Y-12633584D02*
X15920229Y-12643108D01*
X15920229Y-12643108D02*
X15910706Y-12652631D01*
X15910706Y-12652631D02*
X15901182Y-12671679D01*
X15901182Y-12671679D02*
X15901182Y-12719298D01*
X15901182Y-12719298D02*
X15910706Y-12738346D01*
X15910706Y-12738346D02*
X15920229Y-12747869D01*
X15920229Y-12747869D02*
X15939277Y-12757393D01*
X15939277Y-12757393D02*
X15977372Y-12757393D01*
X15977372Y-12757393D02*
X15996420Y-12747869D01*
X15996420Y-12747869D02*
X16005944Y-12738346D01*
X16005944Y-12738346D02*
X16015467Y-12719298D01*
X16129753Y-12719298D02*
X16110706Y-12709774D01*
X16110706Y-12709774D02*
X16101182Y-12700250D01*
X16101182Y-12700250D02*
X16091658Y-12681203D01*
X16091658Y-12681203D02*
X16091658Y-12671679D01*
X16091658Y-12671679D02*
X16101182Y-12652631D01*
X16101182Y-12652631D02*
X16110706Y-12643108D01*
X16110706Y-12643108D02*
X16129753Y-12633584D01*
X16129753Y-12633584D02*
X16167848Y-12633584D01*
X16167848Y-12633584D02*
X16186896Y-12643108D01*
X16186896Y-12643108D02*
X16196420Y-12652631D01*
X16196420Y-12652631D02*
X16205944Y-12671679D01*
X16205944Y-12671679D02*
X16205944Y-12681203D01*
X16205944Y-12681203D02*
X16196420Y-12700250D01*
X16196420Y-12700250D02*
X16186896Y-12709774D01*
X16186896Y-12709774D02*
X16167848Y-12719298D01*
X16167848Y-12719298D02*
X16129753Y-12719298D01*
X16129753Y-12719298D02*
X16110706Y-12728822D01*
X16110706Y-12728822D02*
X16101182Y-12738346D01*
X16101182Y-12738346D02*
X16091658Y-12757393D01*
X16091658Y-12757393D02*
X16091658Y-12795488D01*
X16091658Y-12795488D02*
X16101182Y-12814536D01*
X16101182Y-12814536D02*
X16110706Y-12824060D01*
X16110706Y-12824060D02*
X16129753Y-12833584D01*
X16129753Y-12833584D02*
X16167848Y-12833584D01*
X16167848Y-12833584D02*
X16186896Y-12824060D01*
X16186896Y-12824060D02*
X16196420Y-12814536D01*
X16196420Y-12814536D02*
X16205944Y-12795488D01*
X16205944Y-12795488D02*
X16205944Y-12757393D01*
X16205944Y-12757393D02*
X16196420Y-12738346D01*
X16196420Y-12738346D02*
X16186896Y-12728822D01*
X16186896Y-12728822D02*
X16167848Y-12719298D01*
X16282134Y-12633584D02*
X16282134Y-12671679D01*
X16358325Y-12633584D02*
X16358325Y-12671679D01*
X16653563Y-12909774D02*
X16644039Y-12900250D01*
X16644039Y-12900250D02*
X16624991Y-12871679D01*
X16624991Y-12871679D02*
X16615468Y-12852631D01*
X16615468Y-12852631D02*
X16605944Y-12824060D01*
X16605944Y-12824060D02*
X16596420Y-12776441D01*
X16596420Y-12776441D02*
X16596420Y-12738346D01*
X16596420Y-12738346D02*
X16605944Y-12690727D01*
X16605944Y-12690727D02*
X16615468Y-12662155D01*
X16615468Y-12662155D02*
X16624991Y-12643108D01*
X16624991Y-12643108D02*
X16644039Y-12614536D01*
X16644039Y-12614536D02*
X16653563Y-12605012D01*
X16815468Y-12700250D02*
X16815468Y-12833584D01*
X16767848Y-12624060D02*
X16720229Y-12766917D01*
X16720229Y-12766917D02*
X16844039Y-12766917D01*
X17072611Y-12833584D02*
X17072611Y-12633584D01*
X17158325Y-12833584D02*
X17158325Y-12728822D01*
X17158325Y-12728822D02*
X17148801Y-12709774D01*
X17148801Y-12709774D02*
X17129753Y-12700250D01*
X17129753Y-12700250D02*
X17101182Y-12700250D01*
X17101182Y-12700250D02*
X17082134Y-12709774D01*
X17082134Y-12709774D02*
X17072611Y-12719298D01*
X17282134Y-12833584D02*
X17263087Y-12824060D01*
X17263087Y-12824060D02*
X17253563Y-12814536D01*
X17253563Y-12814536D02*
X17244039Y-12795488D01*
X17244039Y-12795488D02*
X17244039Y-12738346D01*
X17244039Y-12738346D02*
X17253563Y-12719298D01*
X17253563Y-12719298D02*
X17263087Y-12709774D01*
X17263087Y-12709774D02*
X17282134Y-12700250D01*
X17282134Y-12700250D02*
X17310706Y-12700250D01*
X17310706Y-12700250D02*
X17329753Y-12709774D01*
X17329753Y-12709774D02*
X17339277Y-12719298D01*
X17339277Y-12719298D02*
X17348801Y-12738346D01*
X17348801Y-12738346D02*
X17348801Y-12795488D01*
X17348801Y-12795488D02*
X17339277Y-12814536D01*
X17339277Y-12814536D02*
X17329753Y-12824060D01*
X17329753Y-12824060D02*
X17310706Y-12833584D01*
X17310706Y-12833584D02*
X17282134Y-12833584D01*
X17463087Y-12833584D02*
X17444039Y-12824060D01*
X17444039Y-12824060D02*
X17434515Y-12805012D01*
X17434515Y-12805012D02*
X17434515Y-12633584D01*
X17615468Y-12824060D02*
X17596420Y-12833584D01*
X17596420Y-12833584D02*
X17558325Y-12833584D01*
X17558325Y-12833584D02*
X17539277Y-12824060D01*
X17539277Y-12824060D02*
X17529753Y-12805012D01*
X17529753Y-12805012D02*
X17529753Y-12728822D01*
X17529753Y-12728822D02*
X17539277Y-12709774D01*
X17539277Y-12709774D02*
X17558325Y-12700250D01*
X17558325Y-12700250D02*
X17596420Y-12700250D01*
X17596420Y-12700250D02*
X17615468Y-12709774D01*
X17615468Y-12709774D02*
X17624992Y-12728822D01*
X17624992Y-12728822D02*
X17624992Y-12747869D01*
X17624992Y-12747869D02*
X17529753Y-12766917D01*
X17701182Y-12824060D02*
X17720230Y-12833584D01*
X17720230Y-12833584D02*
X17758325Y-12833584D01*
X17758325Y-12833584D02*
X17777373Y-12824060D01*
X17777373Y-12824060D02*
X17786896Y-12805012D01*
X17786896Y-12805012D02*
X17786896Y-12795488D01*
X17786896Y-12795488D02*
X17777373Y-12776441D01*
X17777373Y-12776441D02*
X17758325Y-12766917D01*
X17758325Y-12766917D02*
X17729753Y-12766917D01*
X17729753Y-12766917D02*
X17710706Y-12757393D01*
X17710706Y-12757393D02*
X17701182Y-12738346D01*
X17701182Y-12738346D02*
X17701182Y-12728822D01*
X17701182Y-12728822D02*
X17710706Y-12709774D01*
X17710706Y-12709774D02*
X17729753Y-12700250D01*
X17729753Y-12700250D02*
X17758325Y-12700250D01*
X17758325Y-12700250D02*
X17777373Y-12709774D01*
X17853563Y-12909774D02*
X17863087Y-12900250D01*
X17863087Y-12900250D02*
X17882134Y-12871679D01*
X17882134Y-12871679D02*
X17891658Y-12852631D01*
X17891658Y-12852631D02*
X17901182Y-12824060D01*
X17901182Y-12824060D02*
X17910706Y-12776441D01*
X17910706Y-12776441D02*
X17910706Y-12738346D01*
X17910706Y-12738346D02*
X17901182Y-12690727D01*
X17901182Y-12690727D02*
X17891658Y-12662155D01*
X17891658Y-12662155D02*
X17882134Y-12643108D01*
X17882134Y-12643108D02*
X17863087Y-12614536D01*
X17863087Y-12614536D02*
X17853563Y-12605012D01*
M02*
