%TF.GenerationSoftware,KiCad,Pcbnew,9.0.6*%
%TF.CreationDate,2025-12-27T14:43:41+05:30*%
%TF.ProjectId,PCB NEW FOR breD BOARD SUPPLY,50434220-4e45-4572-9046-4f5220627265,rev?*%
%TF.SameCoordinates,Original*%
%TF.FileFunction,Plated,1,2,PTH,Mixed*%
%TF.FilePolarity,Positive*%
%FSLAX46Y46*%
G04 Gerber Fmt 4.6, Leading zero omitted, Abs format (unit mm)*
G04 Created by KiCad (PCBNEW 9.0.6) date 2025-12-27 14:43:41*
%MOMM*%
%LPD*%
G01*
G04 APERTURE LIST*
%TA.AperFunction,ViaDrill*%
%ADD10C,0.300000*%
%TD*%
%TA.AperFunction,ComponentDrill*%
%ADD11C,0.700000*%
%TD*%
%TA.AperFunction,ComponentDrill*%
%ADD12C,0.800000*%
%TD*%
%TA.AperFunction,ComponentDrill*%
%ADD13C,0.900000*%
%TD*%
G04 aperture for slot hole*
%TA.AperFunction,ComponentDrill*%
%ADD14C,1.000000*%
%TD*%
%TA.AperFunction,ComponentDrill*%
%ADD15C,1.000000*%
%TD*%
%TA.AperFunction,ComponentDrill*%
%ADD16C,1.100000*%
%TD*%
%TA.AperFunction,ComponentDrill*%
%ADD17C,1.520000*%
%TD*%
G04 APERTURE END LIST*
D10*
X139125000Y-92231000D03*
X142850000Y-97550000D03*
D11*
%TO.C,R3*%
X145325000Y-95700000D03*
%TO.C,R1*%
X145350000Y-93450000D03*
%TO.C,R2*%
X148025000Y-78225000D03*
%TO.C,R3*%
X152945000Y-95700000D03*
%TO.C,R1*%
X152970000Y-93450000D03*
%TO.C,R2*%
X155645000Y-78225000D03*
D12*
%TO.C,C3*%
X136135000Y-59690000D03*
%TO.C,C1*%
X136135000Y-63500000D03*
%TO.C,C3*%
X138635000Y-59690000D03*
%TO.C,C1*%
X138635000Y-63500000D03*
%TO.C,C2*%
X142915000Y-63500000D03*
X145415000Y-63500000D03*
D13*
%TO.C,D1*%
X152025000Y-83085000D03*
X152025000Y-85625000D03*
D14*
%TO.C,J6*%
X139065000Y-79740000D02*
X139065000Y-77740000D01*
D15*
%TO.C,J4*%
X139700000Y-54610000D03*
%TO.C,J3*%
X139700000Y-102870000D03*
D14*
%TO.C,J6*%
X143065000Y-83440000D02*
X141065000Y-83440000D01*
D15*
%TO.C,J4*%
X142240000Y-54610000D03*
%TO.C,J3*%
X142240000Y-102870000D03*
%TO.C,J4*%
X144780000Y-54610000D03*
%TO.C,J3*%
X144780000Y-102870000D03*
D14*
%TO.C,J6*%
X145065000Y-79740000D02*
X145065000Y-77740000D01*
D15*
%TO.C,J1*%
X160020000Y-54605000D03*
X160020000Y-57145000D03*
%TO.C,J2*%
X160020000Y-100330000D03*
X160020000Y-102870000D03*
D16*
%TO.C,U2*%
X137795000Y-69850000D03*
%TO.C,U1*%
X137795000Y-90805000D03*
%TO.C,U2*%
X140335000Y-69850000D03*
%TO.C,U1*%
X140335000Y-90805000D03*
%TO.C,U2*%
X142875000Y-69850000D03*
%TO.C,U1*%
X142875000Y-90805000D03*
D17*
%TO.C,J5*%
X149500000Y-56425000D03*
%TO.C,J7*%
X149860000Y-100965000D03*
%TO.C,J5*%
X154580000Y-56425000D03*
%TO.C,J7*%
X154940000Y-100965000D03*
M02*
